<svg width="1728" height="7870" viewBox="0 0 1728 7870" fill="none" xmlns="http://www.w3.org/2000/svg">
<g clip-path="url(#clip0_316_2)">
<rect width="1728" height="7870" fill="#131E18"/>
<g filter="url(#filter0_f_316_2)">
<ellipse cx="1882.23" cy="926" rx="453.229" ry="300" fill="url(#paint0_linear_316_2)"/>
</g>
<g filter="url(#filter1_f_316_2)">
<ellipse cx="-123.771" cy="3214" rx="453.229" ry="300" fill="url(#paint1_linear_316_2)"/>
</g>
<g filter="url(#filter2_f_316_2)">
<ellipse cx="-168.771" cy="308" rx="453.229" ry="300" fill="#09BE1B"/>
</g>
<g filter="url(#filter3_f_316_2)">
<path d="M525.413 7298.1C525.413 7463.79 -452.358 7158.6 -452.358 7581.1C-702.669 7581.1 -234.587 7228.29 -234.587 7062.6C-234.587 6896.92 -702.669 6981.1 -452.358 6981.1C-188.087 6505.1 525.413 7132.42 525.413 7298.1Z" fill="url(#paint2_linear_316_2)"/>
</g>
<circle cx="1255.5" cy="505.5" r="828" stroke="black" stroke-width="3"/>
<circle cx="1255.5" cy="505.5" r="828" stroke="url(#paint3_linear_316_2)" stroke-opacity="0.4" stroke-width="3"/>
<g opacity="0.46">
<circle cx="-111.5" cy="1002.5" r="828" stroke="black" stroke-width="3"/>
<circle cx="-111.5" cy="1002.5" r="828" stroke="url(#paint4_linear_316_2)" stroke-opacity="0.4" stroke-width="3"/>
</g>
<circle cx="1374.57" cy="4591.97" r="828" transform="rotate(71 1374.57 4591.97)" stroke="black" stroke-width="3"/>
<circle cx="1374.57" cy="4591.97" r="828" transform="rotate(71 1374.57 4591.97)" stroke="url(#paint5_linear_316_2)" stroke-opacity="0.4" stroke-width="3"/>
<g opacity="0.46">
<circle cx="59.713" cy="3951.84" r="828" transform="rotate(71 59.713 3951.84)" stroke="black" stroke-width="3"/>
<circle cx="59.713" cy="3951.84" r="828" transform="rotate(71 59.713 3951.84)" stroke="url(#paint6_linear_316_2)" stroke-opacity="0.4" stroke-width="3"/>
</g>
<g filter="url(#filter4_f_316_2)">
<path d="M1017.9 621.374C857.201 850.878 640.153 976.167 533.112 901.216C426.07 826.264 469.569 579.454 630.269 349.951C790.969 120.447 1439.18 -127.009 1546.22 -52.057C1653.26 22.8944 1768.26 231.456 1017.9 621.374Z" fill="url(#paint7_radial_316_2)"/>
</g>
<g filter="url(#filter5_f_316_2)">
<path d="M1849.82 3660.68C1762.83 4279.64 1458.29 4748.52 1169.6 4707.95C880.914 4667.37 717.406 4132.72 804.395 3513.76C891.384 2894.8 1929.25 1746.39 2217.94 1786.96C2506.63 1827.53 2946.44 2125.64 1849.82 3660.68Z" fill="url(#paint8_radial_316_2)"/>
</g>
<g filter="url(#filter6_f_316_2)">
<path d="M-303.079 5901.22C-760.207 6327.5 -969.608 6845.9 -770.789 7059.11C-571.97 7272.32 -40.22 7099.59 416.908 6673.31C874.036 6247.03 1219.46 4738.16 1020.64 4524.95C821.822 4311.74 325.36 4122.46 -303.079 5901.22Z" fill="url(#paint9_radial_316_2)"/>
</g>
<g filter="url(#filter7_f_316_2)">
<path d="M896.921 8226.22C439.793 8652.5 230.392 9170.9 429.211 9384.11C628.03 9597.32 1159.78 9424.59 1616.91 8998.31C2074.04 8572.03 2419.46 7063.16 2220.64 6849.95C2021.82 6636.74 1525.36 6447.46 896.921 8226.22Z" fill="url(#paint10_radial_316_2)"/>
</g>
<g filter="url(#filter8_f_316_2)">
<ellipse cx="1490.79" cy="-230.423" rx="278.5" ry="507.297" transform="rotate(67 1490.79 -230.423)" fill="black"/>
</g>
<g filter="url(#filter9_f_316_2)">
<path d="M407.885 1871.44C140.022 1985.14 -143.495 1920.95 -225.369 1728.07C-307.243 1535.19 -156.47 1286.65 111.393 1172.95C379.256 1059.25 896.691 355.377 978.565 548.26C1060.44 741.143 2771.56 2124.36 407.885 1871.44Z" fill="url(#paint11_linear_316_2)" fill-opacity="0.66"/>
</g>
<g style="mix-blend-mode:lighten" filter="url(#filter10_f_316_2)">
<path d="M-427.785 3264.51C-427.785 3264.51 -306.98 3424.89 -229.462 3429.73C320.864 3464.07 230.672 3439.61 317.953 3458.11C391.798 3473.77 -113.096 3583.98 -257.5 3702.82C-405.181 3824.35 457.925 3911 400.205 4043.36C350.192 4158.05 -183.07 4250.65 -168.798 4333.97C-150.492 4440.84 359.979 4401.59 365.416 4440.27C368.425 4461.68 17.6412 4552.69 -60.1204 4634.65C-68.1265 4643.09 43.4715 4689.5 39.1794 4696.76C25.1504 4720.5 28.3899 4933.38 39.1338 4954.22C95.8718 5064.24 436.231 4944.15 442.023 4985.36C444.992 5006.49 177.941 5018.49 140.024 5156.53C102.869 5291.78 296.911 5554.99 101.226 5396.02C26.512 5335.33 -387.879 4364.76 -387.879 4364.76C-387.879 4364.76 -809.417 4382.95 -810.144 4324.64C-812.217 4158.52 -459.029 4007.46 -487.387 3957.47C-554.912 3838.41 -799.834 3942.69 -785.562 3812.14C-782.378 3783.01 -526.346 3734.11 -522.868 3705.01C-497.484 3492.58 -675.896 3088.74 -675.896 3088.74L-427.785 3264.51Z" fill="url(#paint12_linear_316_2)"/>
</g>
<path opacity="0.3" d="M0 6514.48L1728 6514.48" stroke="#C9C9C9"/>
<g filter="url(#filter11_f_316_2)">
<ellipse cx="864.229" cy="7913" rx="453.229" ry="300" fill="#09BE1B"/>
</g>
</g>
<defs>
<filter id="filter0_f_316_2" x="952.726" y="149.726" width="1859.01" height="1552.55" filterUnits="userSpaceOnUse" color-interpolation-filters="sRGB">
<feFlood flood-opacity="0" result="BackgroundImageFix"/>
<feBlend mode="normal" in="SourceGraphic" in2="BackgroundImageFix" result="shape"/>
<feGaussianBlur stdDeviation="238.137" result="effect1_foregroundBlur_316_2"/>
</filter>
<filter id="filter1_f_316_2" x="-1053.27" y="2437.73" width="1859.01" height="1552.55" filterUnits="userSpaceOnUse" color-interpolation-filters="sRGB">
<feFlood flood-opacity="0" result="BackgroundImageFix"/>
<feBlend mode="normal" in="SourceGraphic" in2="BackgroundImageFix" result="shape"/>
<feGaussianBlur stdDeviation="238.137" result="effect1_foregroundBlur_316_2"/>
</filter>
<filter id="filter2_f_316_2" x="-1098.27" y="-468.274" width="1859.01" height="1552.55" filterUnits="userSpaceOnUse" color-interpolation-filters="sRGB">
<feFlood flood-opacity="0" result="BackgroundImageFix"/>
<feBlend mode="normal" in="SourceGraphic" in2="BackgroundImageFix" result="shape"/>
<feGaussianBlur stdDeviation="238.137" result="effect1_foregroundBlur_316_2"/>
</filter>
<filter id="filter3_f_316_2" x="-1002.27" y="6329.73" width="2003.96" height="1727.65" filterUnits="userSpaceOnUse" color-interpolation-filters="sRGB">
<feFlood flood-opacity="0" result="BackgroundImageFix"/>
<feBlend mode="normal" in="SourceGraphic" in2="BackgroundImageFix" result="shape"/>
<feGaussianBlur stdDeviation="238.137" result="effect1_foregroundBlur_316_2"/>
</filter>
<filter id="filter4_f_316_2" x="88.6336" y="-451.516" width="1921.34" height="1760.25" filterUnits="userSpaceOnUse" color-interpolation-filters="sRGB">
<feFlood flood-opacity="0" result="BackgroundImageFix"/>
<feBlend mode="normal" in="SourceGraphic" in2="BackgroundImageFix" result="shape"/>
<feGaussianBlur stdDeviation="192.9" result="effect1_foregroundBlur_316_2"/>
</filter>
<filter id="filter5_f_316_2" x="-79.6555" y="925.222" width="3494.06" height="4645.86" filterUnits="userSpaceOnUse" color-interpolation-filters="sRGB">
<feFlood flood-opacity="0" result="BackgroundImageFix"/>
<feBlend mode="normal" in="SourceGraphic" in2="BackgroundImageFix" result="shape"/>
<feGaussianBlur stdDeviation="430.346" result="effect1_foregroundBlur_316_2"/>
</filter>
<filter id="filter6_f_316_2" x="-1706.61" y="3530.63" width="3645.39" height="4480.52" filterUnits="userSpaceOnUse" color-interpolation-filters="sRGB">
<feFlood flood-opacity="0" result="BackgroundImageFix"/>
<feBlend mode="normal" in="SourceGraphic" in2="BackgroundImageFix" result="shape"/>
<feGaussianBlur stdDeviation="430.346" result="effect1_foregroundBlur_316_2"/>
</filter>
<filter id="filter7_f_316_2" x="-506.607" y="5855.63" width="3645.39" height="4480.52" filterUnits="userSpaceOnUse" color-interpolation-filters="sRGB">
<feFlood flood-opacity="0" result="BackgroundImageFix"/>
<feBlend mode="normal" in="SourceGraphic" in2="BackgroundImageFix" result="shape"/>
<feGaussianBlur stdDeviation="430.346" result="effect1_foregroundBlur_316_2"/>
</filter>
<filter id="filter8_f_316_2" x="625.299" y="-940.392" width="1730.98" height="1419.94" filterUnits="userSpaceOnUse" color-interpolation-filters="sRGB">
<feFlood flood-opacity="0" result="BackgroundImageFix"/>
<feBlend mode="normal" in="SourceGraphic" in2="BackgroundImageFix" result="shape"/>
<feGaussianBlur stdDeviation="192.95" result="effect1_foregroundBlur_316_2"/>
</filter>
<filter id="filter9_f_316_2" x="-633.554" y="129.092" width="2673.02" height="2184.48" filterUnits="userSpaceOnUse" color-interpolation-filters="sRGB">
<feFlood flood-opacity="0" result="BackgroundImageFix"/>
<feBlend mode="normal" in="SourceGraphic" in2="BackgroundImageFix" result="shape"/>
<feGaussianBlur stdDeviation="192.95" result="effect1_foregroundBlur_316_2"/>
</filter>
<filter id="filter10_f_316_2" x="-1258.89" y="2640" width="2149.68" height="3254.24" filterUnits="userSpaceOnUse" color-interpolation-filters="sRGB">
<feFlood flood-opacity="0" result="BackgroundImageFix"/>
<feBlend mode="normal" in="SourceGraphic" in2="BackgroundImageFix" result="shape"/>
<feGaussianBlur stdDeviation="224.371" result="effect1_foregroundBlur_316_2"/>
</filter>
<filter id="filter11_f_316_2" x="-65.2744" y="7136.73" width="1859.01" height="1552.55" filterUnits="userSpaceOnUse" color-interpolation-filters="sRGB">
<feFlood flood-opacity="0" result="BackgroundImageFix"/>
<feBlend mode="normal" in="SourceGraphic" in2="BackgroundImageFix" result="shape"/>
<feGaussianBlur stdDeviation="238.137" result="effect1_foregroundBlur_316_2"/>
</filter>
<linearGradient id="paint0_linear_316_2" x1="1641.5" y1="707" x2="1882.23" y2="1226" gradientUnits="userSpaceOnUse">
<stop stop-color="#09BE1B"/>
<stop offset="1" stop-color="#041258"/>
</linearGradient>
<linearGradient id="paint1_linear_316_2" x1="-364.5" y1="2995" x2="-123.771" y2="3514" gradientUnits="userSpaceOnUse">
<stop stop-color="#09BE1B"/>
<stop offset="1" stop-color="#041258"/>
</linearGradient>
<linearGradient id="paint2_linear_316_2" x1="-693.087" y1="7062.1" x2="-452.358" y2="7581.1" gradientUnits="userSpaceOnUse">
<stop stop-color="#09BE1B"/>
<stop offset="1" stop-color="#041258"/>
</linearGradient>
<linearGradient id="paint3_linear_316_2" x1="1999.52" y1="-911.834" x2="-537.3" y2="-30.5541" gradientUnits="userSpaceOnUse">
<stop stop-color="#01FF07"/>
<stop offset="1" stop-color="#00FF06" stop-opacity="0"/>
</linearGradient>
<linearGradient id="paint4_linear_316_2" x1="632.525" y1="-414.834" x2="-1904.3" y2="466.446" gradientUnits="userSpaceOnUse">
<stop stop-color="#01FF07"/>
<stop offset="1" stop-color="#00FF06" stop-opacity="0"/>
</linearGradient>
<linearGradient id="paint5_linear_316_2" x1="2118.59" y1="3174.64" x2="-418.233" y2="4055.92" gradientUnits="userSpaceOnUse">
<stop stop-color="#01FF07"/>
<stop offset="1" stop-color="#00FF06" stop-opacity="0"/>
</linearGradient>
<linearGradient id="paint6_linear_316_2" x1="803.738" y1="2534.51" x2="-1733.09" y2="3415.79" gradientUnits="userSpaceOnUse">
<stop stop-color="#01FF07"/>
<stop offset="1" stop-color="#00FF06" stop-opacity="0"/>
</linearGradient>
<radialGradient id="paint7_radial_316_2" cx="0" cy="0" r="1" gradientUnits="userSpaceOnUse" gradientTransform="translate(1141.51 251.996) rotate(128.853) scale(1165.71 597.286)">
<stop/>
<stop offset="1" stop-opacity="0"/>
</radialGradient>
<radialGradient id="paint8_radial_316_2" cx="0" cy="0" r="1" gradientUnits="userSpaceOnUse" gradientTransform="translate(1721.41 2801.25) rotate(101.853) scale(2600.62 1332.5)">
<stop/>
<stop offset="1" stop-opacity="0"/>
</radialGradient>
<radialGradient id="paint9_radial_316_2" cx="0" cy="0" r="1" gradientUnits="userSpaceOnUse" gradientTransform="translate(474.579 5513.46) rotate(133.147) scale(2600.62 1332.5)">
<stop/>
<stop offset="1" stop-opacity="0"/>
</radialGradient>
<radialGradient id="paint10_radial_316_2" cx="0" cy="0" r="1" gradientUnits="userSpaceOnUse" gradientTransform="translate(1674.58 7838.46) rotate(133.147) scale(2600.62 1332.5)">
<stop/>
<stop offset="1" stop-opacity="0"/>
</radialGradient>
<linearGradient id="paint11_linear_316_2" x1="353.045" y1="752.916" x2="906.353" y2="2056.43" gradientUnits="userSpaceOnUse">
<stop/>
<stop offset="1" stop-opacity="0.31"/>
</linearGradient>
<linearGradient id="paint12_linear_316_2" x1="1004.64" y1="4161.54" x2="-1076.61" y2="3401.07" gradientUnits="userSpaceOnUse">
<stop stop-color="#650DF0"/>
<stop offset="0.96875" stop-color="#CB3D9A"/>
</linearGradient>
<clipPath id="clip0_316_2">
<rect width="1728" height="7870" fill="white"/>
</clipPath>
</defs>
</svg>
