<?xml version="1.0" standalone="no"?>
<!DOCTYPE svg PUBLIC "-//W3C//DTD SVG 20010904//EN"
 "http://www.w3.org/TR/2001/REC-SVG-20010904/DTD/svg10.dtd">
<svg version="1.0" xmlns="http://www.w3.org/2000/svg"
 width="512.000000pt" height="512.000000pt" viewBox="0 0 512.000000 512.000000"
 preserveAspectRatio="xMidYMid meet">

<g transform="translate(0.000000,512.000000) scale(0.100000,-0.100000)"
fill="#3b92f8" stroke="none">
<path d="M3075 5095 c-24 -23 -25 -30 -25 -150 l0 -125 -68 0 c-92 0 -149 -28
-179 -90 -23 -43 -23 -51 -23 -409 0 -348 1 -367 21 -407 30 -63 74 -86 170
-92 l79 -5 0 -39 c0 -47 35 -88 75 -88 40 0 75 41 75 88 l0 39 79 5 c96 6 140
29 170 92 18 36 21 61 21 178 0 122 -2 138 -21 162 -23 30 -72 35 -105 12 -17
-13 -20 -31 -24 -153 l-5 -138 -190 0 -190 0 0 345 0 345 193 3 192 2 0 -95
c0 -53 5 -105 11 -116 25 -48 105 -44 128 7 6 14 11 69 11 122 0 81 -4 105
-22 142 -31 62 -88 90 -180 90 l-68 0 0 125 c0 120 -1 127 -25 150 -13 14 -36
25 -50 25 -14 0 -37 -11 -50 -25z"/>
<path d="M185 4711 c-82 -14 -151 -74 -174 -150 -15 -51 -15 -431 0 -482 16
-52 61 -103 112 -128 43 -21 49 -21 1065 -21 1119 0 1061 -3 1125 58 16 15 38
44 48 65 19 35 20 56 17 280 l-3 242 -27 40 c-37 54 -83 83 -150 95 -35 7
-297 9 -717 8 l-663 -3 -24 -28 c-29 -34 -30 -56 -3 -90 l20 -27 689 -2 c660
-3 689 -4 709 -22 20 -18 21 -28 21 -226 0 -188 -2 -208 -18 -223 -17 -16
-102 -17 -1020 -17 -989 0 -1002 0 -1022 20 -19 19 -20 33 -20 219 0 267 -22
245 245 251 190 5 208 7 221 24 30 42 12 98 -37 115 -35 12 -327 13 -394 2z"/>
<path d="M3930 4363 c-46 -17 -50 -31 -50 -163 l0 -127 -78 -6 c-90 -6 -131
-23 -164 -69 -22 -32 -23 -39 -26 -285 -3 -220 -1 -258 14 -288 28 -59 67 -79
164 -85 l85 -5 3 -46 c4 -55 28 -82 73 -82 42 0 70 31 76 87 l6 46 76 0 c87 0
128 18 161 72 19 31 20 51 20 289 0 249 -1 257 -23 289 -34 51 -78 72 -162 78
l-73 5 -4 124 c-3 123 -4 125 -31 149 -28 24 -39 27 -67 17z m210 -658 l0
-215 -190 0 -190 0 0 208 c0 115 3 212 7 215 3 4 89 7 190 7 l183 0 0 -215z"/>
<path d="M4744 3759 c-31 -16 -44 -51 -44 -119 l0 -60 -57 0 c-82 0 -127 -15
-162 -55 -47 -54 -53 -93 -49 -339 3 -202 5 -224 24 -256 35 -61 75 -80 165
-80 l79 0 0 -39 c0 -54 31 -91 76 -91 49 0 74 29 74 85 l0 45 79 0 c86 0 123
17 165 73 20 27 21 43 24 280 2 246 2 253 -20 291 -33 58 -76 79 -169 84 l-79
5 0 67 c0 50 -5 73 -17 88 -22 26 -61 35 -89 21z m224 -546 l2 -213 -195 0
-195 0 0 208 c0 115 3 212 7 216 4 3 90 5 192 4 l186 -3 3 -212z"/>
<path d="M1579 3585 c-444 -54 -865 -282 -1152 -624 -405 -483 -530 -1121
-337 -1721 59 -181 95 -227 158 -201 41 17 54 55 35 107 -78 214 -107 327
-124 491 -81 784 422 1527 1184 1747 163 47 258 60 457 60 132 0 211 -5 277
-17 700 -131 1219 -650 1350 -1350 23 -128 23 -426 0 -554 -118 -633 -565
-1132 -1170 -1307 -319 -93 -652 -86 -982 20 -117 38 -326 144 -435 222 -121
86 -278 241 -369 365 -65 88 -75 97 -104 97 -49 0 -77 -24 -77 -67 0 -52 88
-171 240 -323 131 -131 228 -206 375 -291 505 -290 1131 -316 1654 -68 204 96
357 204 512 358 806 807 668 2147 -285 2775 -352 232 -784 332 -1207 281z"/>
<path d="M773 2364 c-53 -12 -53 -7 -53 -564 0 -580 -3 -554 73 -565 23 -3
130 -2 237 3 183 8 198 10 248 36 209 107 249 377 81 544 -24 23 -46 42 -51
42 -4 0 6 21 22 46 79 126 54 289 -61 388 -68 58 -112 68 -304 71 -93 2 -180
1 -192 -1z m377 -170 c49 -27 84 -100 75 -154 -9 -52 -57 -104 -110 -119 -22
-6 -86 -11 -142 -11 l-103 0 0 156 0 156 123 -4 c99 -3 130 -8 157 -24z m47
-445 c68 -25 116 -97 116 -174 0 -60 -19 -101 -67 -143 -42 -36 -58 -40 -238
-46 l-138 -4 0 189 0 189 149 0 c82 0 162 -5 178 -11z"/>
<path d="M1697 2342 c-15 -17 -17 -69 -17 -544 0 -503 1 -526 19 -542 27 -25
78 -24 104 3 l22 22 0 518 c0 496 -1 520 -19 540 -25 27 -86 29 -109 3z"/>
<path d="M2106 2329 l-26 -20 0 -505 0 -505 25 -24 c24 -25 27 -25 189 -25 91
0 189 5 218 11 223 48 368 260 368 538 0 53 -7 126 -15 163 -41 194 -175 342
-343 377 -29 6 -129 11 -221 11 -155 0 -170 -2 -195 -21z m410 -144 c130 -38
214 -187 214 -377 0 -149 -43 -264 -126 -337 -63 -55 -120 -71 -261 -71 l-113
0 0 400 0 400 118 0 c75 0 136 -5 168 -15z"/>
<path d="M3902 1200 c-32 -30 -30 -82 4 -109 26 -21 35 -21 596 -21 l569 0 24
25 c14 13 25 36 25 50 0 14 -11 37 -25 50 l-24 25 -574 0 c-563 0 -574 0 -595
-20z"/>
<path d="M3933 873 c-47 -9 -68 -77 -37 -121 l15 -22 584 0 584 0 21 22 c37
40 21 97 -34 118 -26 10 -1082 13 -1133 3z"/>
<path d="M3906 509 c-34 -27 -36 -77 -3 -107 l23 -22 573 0 572 0 24 25 c14
13 25 36 25 50 0 14 -11 37 -25 50 l-24 25 -569 0 c-561 0 -570 0 -596 -21z"/>
</g>
</svg>
