<?xml version="1.0" encoding="UTF-8"?>
<!DOCTYPE svg PUBLIC "-//W3C//DTD SVG 1.1//EN" "http://www.w3.org/Graphics/SVG/1.1/DTD/svg11.dtd">
<svg xmlns="http://www.w3.org/2000/svg" version="1.1" width="512px" height="512px" style="shape-rendering:geometricPrecision; text-rendering:geometricPrecision; image-rendering:optimizeQuality; fill-rule:evenodd; clip-rule:evenodd;fill=#3b92f8" xmlns:xlink="http://www.w3.org/1999/xlink">
<g><path style="opacity:0.932" fill="#3b92f8" d="M 231.5,31.5 C 318.228,25.7944 387.395,57.461 439,126.5C 476.841,181.707 488.508,242.04 474,307.5C 471.647,312.426 467.814,314.26 462.5,313C 460.333,312.167 458.833,310.667 458,308.5C 474.702,222.936 450.535,151.436 385.5,94C 333.052,52.8388 274.052,39.1721 208.5,53C 131.972,74.5271 81.1388,123.027 56,198.5C 50.6309,217.119 47.7976,236.119 47.5,255.5C 48.4359,273.312 50.2692,290.979 53,308.5C 48.4865,314.747 43.4865,315.08 38,309.5C 19.7405,225.955 40.5738,153.788 100.5,93C 137.505,58.4994 181.172,37.9994 231.5,31.5 Z"/></g>
<g><path style="opacity:0.931" fill="#3b92f8" d="M 236.5,71.5 C 288.856,67.4556 335.189,81.9556 375.5,115C 379.901,125.26 376.568,129.927 365.5,129C 311.393,85.2701 252.059,76.6034 187.5,103C 130.953,129.9 98.1195,174.4 89,236.5C 87.9803,249.2 87.647,261.866 88,274.5C 84.7262,279.738 80.2262,280.904 74.5,278C 66.2315,212.514 86.8982,157.848 136.5,114C 165.73,90.2193 199.063,76.0527 236.5,71.5 Z"/></g>
<g><path style="opacity:0.945" fill="#3b92f8" d="M 249.5,132.5 C 268.84,131.174 279.174,140.174 280.5,159.5C 290.506,159.334 300.506,159.5 310.5,160C 324.132,165.083 329.632,174.916 327,189.5C 324.943,198.557 319.443,204.391 310.5,207C 286.459,207.05 262.459,207.717 238.5,209C 232.01,214.037 230.844,220.204 235,227.5C 236.419,228.46 237.919,229.293 239.5,230C 252.444,231.256 265.444,231.923 278.5,232C 304.667,238.167 320.833,254.333 327,280.5C 327.667,286.167 327.667,291.833 327,297.5C 322.947,302.008 318.28,302.674 313,299.5C 312.138,297.913 311.471,296.246 311,294.5C 310.437,270.948 298.937,255.781 276.5,249C 262.862,247.855 249.195,247.188 235.5,247C 217.988,239.805 211.821,226.972 217,208.5C 220.167,201.333 225.333,196.167 232.5,193C 256.104,191.696 279.77,191.03 303.5,191C 309.341,189.824 311.507,186.324 310,180.5C 309.5,178.667 308.333,177.5 306.5,177C 292.808,176.019 279.141,175.019 265.5,174C 264.874,173.25 264.374,172.416 264,171.5C 263.805,165.436 263.139,159.436 262,153.5C 258.221,148.621 254.054,148.288 249.5,152.5C 247.912,158.707 247.079,165.041 247,171.5C 246.535,172.931 245.701,174.097 244.5,175C 217.278,177.887 202.611,192.887 200.5,220C 200.627,233.252 205.627,244.252 215.5,253C 221.283,256.639 227.116,260.139 233,263.5C 235.001,273.164 231.167,277.33 221.5,276C 196.988,265.146 184.322,246.313 183.5,219.5C 184.672,188.835 200.005,169.168 229.5,160.5C 230.347,146.742 237.014,137.408 249.5,132.5 Z"/></g>
<g><path style="opacity:0.93" fill="#3b92f8" d="M 392.5,142.5 C 395.978,142.184 399.312,142.684 402.5,144C 431.215,182.343 443.382,225.51 439,273.5C 436.646,279.095 432.479,280.928 426.5,279C 424.951,277.786 423.785,276.286 423,274.5C 426.276,230.26 414.943,190.26 389,154.5C 387.593,149.643 388.76,145.643 392.5,142.5 Z"/></g>
<g><path style="opacity:0.947" fill="#3b92f8" d="M 108.5,294.5 C 137.286,292.13 156.453,304.464 166,331.5C 171.127,352.448 165.627,369.948 149.5,384C 163.893,389.436 176.06,397.936 186,409.5C 196.542,398.144 209.042,389.644 223.5,384C 205.115,367.624 200.282,347.79 209,324.5C 223.029,298.244 244.529,289.077 273.5,297C 294.146,306.27 305.146,322.27 306.5,345C 306.013,360.971 299.68,373.971 287.5,384C 301.958,389.644 314.458,398.144 325,409.5C 334.94,397.936 347.107,389.436 361.5,384C 345.373,369.948 339.873,352.448 345,331.5C 354.526,304.312 373.693,292.146 402.5,295C 428.746,300.936 442.746,317.436 444.5,344.5C 443.499,370.019 430.832,386.519 406.5,394C 383.8,393.124 363.467,399.458 345.5,413C 341.607,416.39 338.273,420.223 335.5,424.5C 343.08,437.131 343.414,449.965 336.5,463C 372.5,463.667 408.5,463.667 444.5,463C 458.299,460.581 464.132,452.414 462,438.5C 456.192,428.019 448.859,418.685 440,410.5C 438.926,399.947 443.426,396.447 453.5,400C 463.137,408.466 470.971,418.3 477,429.5C 483.421,448.904 478.254,464.404 461.5,476C 458.911,477.197 456.244,478.197 453.5,479C 321.5,479.667 189.5,479.667 57.5,479C 40.8472,473.159 31.8472,461.326 30.5,443.5C 34.2146,427.244 42.2146,413.41 54.5,402C 59.6395,397.771 64.8062,397.605 70,401.5C 71.4217,404.03 71.755,406.697 71,409.5C 66,415.167 61,420.833 56,426.5C 53.2677,430.241 50.9343,434.241 49,438.5C 46.7054,452.531 52.5387,460.698 66.5,463C 102.5,463.667 138.5,463.667 174.5,463C 167.586,449.965 167.92,437.131 175.5,424.5C 166.179,412.329 154.179,403.829 139.5,399C 127.968,396.438 116.301,394.771 104.5,394C 80.3182,386.651 67.6515,370.318 66.5,345C 68.2103,317.656 82.2103,300.823 108.5,294.5 Z M 110.5,311.5 C 138.331,310.497 151.497,323.83 150,351.5C 145.646,368.513 134.646,377.513 117,378.5C 93.7077,375.876 82.7077,362.876 84,339.5C 87.2469,324.756 96.0802,315.423 110.5,311.5 Z M 249.5,311.5 C 273.332,310.237 286.665,321.404 289.5,345C 285.656,369.851 271.323,380.518 246.5,377C 224.721,368.349 217.554,352.849 225,330.5C 230.319,320.431 238.486,314.098 249.5,311.5 Z M 387.5,311.5 C 411.129,310.136 424.462,321.136 427.5,344.5C 425.92,365.247 414.754,376.58 394,378.5C 369.686,375.522 358.686,361.855 361,337.5C 364.451,323.215 373.284,314.548 387.5,311.5 Z M 250.5,395.5 C 282.007,394.83 305.84,407.83 322,434.5C 326.785,445.47 324.285,454.303 314.5,461C 311.576,461.988 308.576,462.654 305.5,463C 271.833,463.667 238.167,463.667 204.5,463C 186.63,458.416 182.13,447.916 191,431.5C 205.192,410.155 225.025,398.155 250.5,395.5 Z"/></g>
</svg>
