<?xml version="1.0" standalone="no"?>
<!DOCTYPE svg PUBLIC "-//W3C//DTD SVG 20010904//EN"
 "http://www.w3.org/TR/2001/REC-SVG-20010904/DTD/svg10.dtd">
<svg version="1.0" xmlns="http://www.w3.org/2000/svg"
 width="512.000000pt" height="512.000000pt" viewBox="0 0 512.000000 512.000000"
 preserveAspectRatio="xMidYMid meet">

<g transform="translate(0.000000,512.000000) scale(0.100000,-0.100000)"
fill="#3b92f8" stroke="none">
<path d="M371 5104 c-114 -30 -220 -113 -274 -212 -60 -110 -57 12 -57 -2218
0 -1347 3 -2060 10 -2095 26 -138 122 -263 247 -322 l68 -32 1182 -3 1181 -2
21 26 c12 15 21 33 21 40 0 29 -25 64 -53 74 -20 7 -399 10 -1167 10 l-1137 0
-61 31 c-68 33 -105 71 -136 139 l-21 45 0 2085 0 2085 24 48 c32 65 110 133
175 152 46 13 257 15 1706 13 l1655 -3 42 -23 c63 -33 109 -77 135 -130 l23
-47 5 -978 5 -979 24 -19 c30 -25 76 -24 101 1 20 20 20 29 18 1013 l-3 993
-38 76 c-59 120 -156 200 -284 233 -85 22 -3329 21 -3412 -1z"/>
<path d="M552 4690 c-38 -9 -68 -34 -88 -72 -17 -33 -20 -269 -3 -299 25 -48
105 -44 128 7 6 14 11 70 11 125 l0 99 1478 -2 1477 -3 3 -362 2 -363 -1480 0
-1480 0 0 105 c0 99 -2 107 -25 130 -31 32 -74 33 -103 2 -20 -21 -22 -34 -22
-153 0 -148 12 -184 71 -216 32 -17 101 -18 1560 -18 l1526 0 34 23 c70 46 70
44 67 502 -3 384 -4 412 -22 438 -10 15 -33 36 -50 45 -29 16 -141 17 -1541
19 -830 0 -1525 -2 -1543 -7z"/>
<path d="M539 3295 c-14 -8 -35 -27 -45 -42 -17 -25 -19 -49 -19 -250 0 -208
1 -223 21 -250 43 -59 67 -64 301 -61 303 4 293 -7 293 316 l0 222 -34 38 -34
37 -229 2 c-183 2 -233 0 -254 -12z m401 -295 l0 -161 -157 3 -158 3 -3 158
-3 157 161 0 160 0 0 -160z"/>
<path d="M1414 3300 c-11 -4 -33 -22 -47 -40 l-27 -32 0 -221 c0 -239 3 -254
53 -291 26 -20 43 -21 240 -24 234 -3 258 2 301 61 20 27 21 42 21 250 0 317
10 307 -307 306 -117 0 -222 -4 -234 -9z m394 -297 l-3 -158 -157 -3 -158 -3
0 161 0 160 160 0 161 0 -3 -157z"/>
<path d="M2263 3290 c-58 -35 -63 -56 -63 -287 0 -316 -3 -313 310 -313 311 0
310 -1 310 308 0 227 -6 258 -62 292 -30 18 -50 20 -248 20 -196 0 -218 -2
-247 -20z m407 -290 l0 -160 -160 0 -160 0 0 160 0 160 160 0 160 0 0 -160z"/>
<path d="M3120 3288 c-55 -37 -62 -72 -58 -308 4 -293 -5 -284 294 -288 238
-4 268 2 304 60 19 31 20 46 18 260 l-3 228 -33 32 -32 33 -228 3 c-224 3
-228 3 -262 -20z m410 -288 l0 -161 -157 3 -158 3 -3 158 -3 157 161 0 160 0
0 -160z"/>
<path d="M3565 2574 c-251 -44 -489 -163 -672 -337 l-73 -70 0 64 c0 78 -22
125 -70 151 -30 16 -60 18 -240 18 -313 0 -310 3 -310 -313 0 -231 5 -252 63
-287 28 -17 51 -20 174 -20 l143 0 -12 -27 c-6 -16 -25 -82 -42 -148 l-32
-120 -109 -5 c-184 -8 -187 -15 -183 -321 l3 -221 37 -34 38 -34 138 0 139 0
27 -70 c57 -144 188 -334 310 -447 442 -410 1094 -468 1594 -140 498 326 710
942 518 1505 -64 187 -158 336 -310 488 -257 258 -565 386 -926 383 -69 0
-161 -7 -205 -15z m495 -167 c196 -52 363 -144 506 -279 471 -445 482 -1180
24 -1639 -308 -309 -752 -416 -1167 -280 -298 98 -541 314 -678 604 -71 149
-96 255 -102 435 -6 174 4 260 48 397 127 399 471 701 886 780 123 23 361 14
483 -18z m-1390 -305 c0 -102 -4 -152 -12 -160 -8 -8 -58 -12 -160 -12 l-148
0 0 160 0 160 160 0 160 0 0 -148z m-176 -894 c3 -68 9 -138 12 -155 l6 -33
-81 0 -81 0 0 155 0 155 69 0 68 0 7 -122z"/>
<path d="M3645 2283 c-410 -66 -716 -342 -832 -753 -14 -52 -18 -99 -17 -240
0 -161 3 -182 28 -265 53 -175 140 -318 267 -441 250 -241 596 -335 930 -253
113 28 287 114 379 188 181 145 307 349 355 576 28 127 24 315 -9 440 -94 361
-363 631 -724 726 -76 20 -306 34 -377 22z m363 -173 c241 -68 447 -248 549
-478 68 -153 86 -376 44 -537 -85 -329 -350 -573 -683 -631 -369 -64 -744 136
-904 481 -57 124 -77 228 -71 380 3 75 12 155 21 190 62 224 234 434 441 537
59 30 159 63 230 77 80 16 288 6 373 -19z"/>
<path d="M3722 1987 c-13 -13 -22 -36 -22 -53 0 -28 -4 -32 -54 -47 -71 -23
-146 -90 -182 -163 -22 -45 -27 -70 -27 -127 -1 -127 53 -201 193 -268 l70
-33 0 -227 0 -228 -37 6 c-21 3 -70 21 -110 40 -78 37 -112 37 -138 0 -19 -28
-19 -57 1 -86 21 -30 144 -88 203 -96 76 -11 81 -14 81 -46 0 -37 40 -79 75
-79 38 0 75 42 75 83 0 29 4 36 27 42 99 24 197 105 250 206 25 48 28 64 28
149 0 87 -3 100 -30 149 -41 74 -102 125 -194 160 l-76 29 -3 176 c-3 202 -6
197 85 146 64 -37 86 -37 119 -5 59 59 0 135 -137 176 -59 18 -69 24 -69 44 0
65 -84 99 -128 52z m-22 -383 l0 -146 -42 25 c-77 44 -95 118 -47 196 15 24
71 71 87 71 1 0 2 -66 2 -146z m249 -414 c95 -67 74 -232 -38 -307 -61 -42
-61 -43 -61 167 l0 190 36 -15 c19 -8 48 -23 63 -35z"/>
<path d="M551 2383 c-19 -10 -44 -31 -55 -46 -20 -27 -21 -42 -21 -250 0 -320
-10 -310 324 -305 l223 3 34 37 34 38 0 222 c0 240 -3 255 -53 292 -26 20 -43
21 -240 24 -187 2 -216 0 -246 -15z m389 -293 l0 -160 -160 0 -160 0 0 153 c0
85 3 157 7 160 3 4 75 7 160 7 l153 0 0 -160z"/>
<path d="M1415 2386 c-16 -7 -39 -23 -50 -36 -19 -20 -20 -39 -23 -256 l-3
-233 35 -38 34 -38 223 -3 c244 -3 265 0 302 52 21 30 22 40 22 253 0 208 -1
223 -21 250 -42 57 -69 63 -289 63 -143 -1 -208 -5 -230 -14z m393 -298 l3
-158 -161 0 -160 0 0 160 0 161 158 -3 157 -3 3 -157z"/>
<path d="M515 1447 c-42 -42 -48 -86 -44 -320 4 -159 6 -178 25 -204 37 -50
52 -53 287 -53 319 0 307 -12 307 305 0 319 14 305 -311 305 l-231 0 -33 -33z
m425 -272 l0 -155 -160 0 -160 0 0 155 0 155 160 0 160 0 0 -155z"/>
<path d="M1388 1457 c-45 -38 -48 -53 -48 -282 0 -317 -12 -305 307 -305 311
0 306 -4 311 259 5 232 -1 276 -43 318 l-33 33 -233 0 c-228 0 -235 -1 -261
-23z m422 -282 l0 -155 -160 0 -160 0 0 155 0 155 160 0 160 0 0 -155z"/>
</g>
</svg>
