<?xml version="1.0" standalone="no"?>
<!DOCTYPE svg PUBLIC "-//W3C//DTD SVG 20010904//EN"
 "http://www.w3.org/TR/2001/REC-SVG-20010904/DTD/svg10.dtd">
<svg version="1.0" xmlns="http://www.w3.org/2000/svg"
 width="512.000000pt" height="512.000000pt" viewBox="0 0 512.000000 512.000000"
 preserveAspectRatio="xMidYMid meet">

<g transform="translate(0.000000,512.000000) scale(0.100000,-0.100000)"
fill="#3b92f8" stroke="none">
<path d="M1438 4784 c-160 -29 -327 -116 -451 -235 l-71 -68 -300 -3 c-297 -3
-302 -3 -351 -28 -64 -31 -124 -91 -155 -155 l-25 -50 0 -1445 0 -1445 23 -45
c35 -72 75 -114 144 -151 l63 -34 833 -3 c757 -2 832 -4 832 -19 0 -16 -36
-239 -45 -279 -4 -17 -15 -23 -56 -28 -107 -14 -202 -83 -249 -181 -18 -39
-25 -71 -28 -147 -4 -93 -3 -98 21 -122 l26 -26 911 0 911 0 26 26 c25 25 25
29 21 123 -4 86 -9 104 -38 160 -51 95 -133 153 -239 167 -58 7 -52 -2 -75
132 -15 96 -24 90 84 57 81 -26 524 -33 629 -11 85 18 183 61 250 110 l47 35
314 3 315 3 63 34 c70 38 100 69 140 145 l27 51 0 1445 0 1445 -34 63 c-37 69
-79 109 -151 144 l-45 23 -1261 3 -1260 2 -66 65 c-209 203 -494 291 -780 239z
m374 -177 c117 -37 203 -90 294 -181 90 -90 143 -175 182 -294 21 -65 25 -97
26 -202 1 -142 -14 -210 -69 -326 -19 -40 -35 -81 -35 -91 0 -10 16 -74 36
-142 19 -68 33 -125 31 -128 -3 -2 -60 12 -128 31 -68 20 -132 36 -142 36 -10
0 -51 -16 -91 -35 -113 -54 -184 -70 -321 -70 -208 1 -350 60 -501 210 -78 78
-98 104 -137 185 -103 214 -103 424 0 640 39 80 59 108 132 181 114 113 212
169 366 205 90 21 260 12 357 -19z m-1002 -296 c0 -5 -11 -34 -25 -65 -14 -31
-25 -63 -25 -71 0 -13 -38 -15 -260 -15 -283 0 -272 -3 -249 57 14 37 47 73
84 89 35 15 475 20 475 5z m3996 -17 c39 -28 63 -63 70 -101 l7 -33 -1222 0
c-1068 0 -1221 2 -1221 15 0 8 -11 40 -25 71 -14 31 -25 60 -25 65 0 5 504 8
1194 7 1189 -3 1195 -3 1222 -24z m-4086 -368 c0 -428 308 -798 725 -871 167
-29 308 -14 476 49 53 20 102 36 109 36 6 0 89 -22 185 -50 96 -28 183 -50
195 -50 27 0 70 43 70 70 0 11 -23 102 -52 201 l-52 181 18 47 c66 171 85 257
86 384 l0 77 1200 0 1200 0 0 -1120 0 -1120 -240 0 -239 0 -3 398 -3 399 -30
49 c-58 92 -181 137 -280 101 l-40 -14 -46 42 c-70 62 -153 80 -235 51 -39
-13 -40 -13 -77 25 -49 49 -121 73 -193 66 l-54 -6 0 141 c0 167 -9 204 -67
268 -65 72 -151 96 -247 68 -55 -16 -138 -99 -154 -154 -9 -30 -12 -169 -12
-498 l0 -457 -77 59 c-116 88 -136 97 -223 97 -83 0 -121 -15 -178 -69 -57
-53 -77 -101 -77 -189 0 -77 0 -78 77 -227 l77 -150 -1159 0 -1160 0 0 1120 0
1120 240 0 240 0 0 -74z m2535 -751 l25 -24 0 -496 0 -495 80 0 80 0 0 255 0
256 25 24 c32 33 78 33 110 0 l25 -24 0 -256 0 -255 80 0 80 0 0 215 c0 216 0
216 25 240 32 33 78 33 110 0 25 -24 25 -24 25 -240 l0 -215 80 0 80 0 0 175
c0 173 0 176 25 200 32 33 78 33 110 0 l25 -24 0 -469 c0 -276 -4 -492 -10
-523 -36 -190 -191 -349 -378 -388 -29 -6 -149 -11 -266 -11 -179 0 -225 3
-290 20 -110 28 -190 74 -271 155 -65 66 -83 94 -263 430 -107 198 -196 375
-199 392 -14 84 69 149 140 111 12 -6 87 -60 166 -120 158 -118 183 -127 226
-83 l25 24 0 551 0 551 25 24 c15 16 36 25 55 25 19 0 40 -9 55 -25z m-544
-1692 c34 -65 73 -135 86 -155 12 -21 23 -40 23 -43 0 -3 -558 -4 -1239 -3
-1234 3 -1240 3 -1267 24 -60 44 -69 67 -72 185 l-4 109 1205 0 1205 0 63
-117z m2167 8 c-3 -118 -12 -141 -72 -185 -26 -20 -43 -21 -261 -24 l-233 -3
34 79 c20 47 39 112 46 160 l11 82 239 0 240 0 -4 -109z m-1903 -393 c9 -42
45 -265 45 -282 0 -15 -40 -16 -460 -16 -420 0 -460 1 -460 16 0 17 36 240 45
282 l5 22 410 0 410 0 5 -22z m311 -484 c39 -28 63 -63 70 -101 l7 -33 -802 0
c-875 0 -814 -4 -790 57 6 15 20 39 32 52 48 52 32 51 769 48 676 -2 687 -2
714 -23z"/>
<path d="M1200 4387 c-19 -6 -58 -34 -85 -62 -71 -70 -91 -145 -63 -239 16
-55 99 -138 154 -154 94 -28 169 -8 239 63 102 101 102 229 0 330 -70 71 -152
91 -245 62z m135 -172 c50 -49 15 -135 -55 -135 -41 0 -80 39 -80 80 0 41 39
80 80 80 19 0 40 -9 55 -25z"/>
<path d="M1542 3977 c-215 -215 -392 -397 -392 -402 0 -13 92 -105 105 -105 6
0 188 178 405 395 l395 395 -55 55 c-30 30 -57 55 -60 55 -3 0 -182 -177 -398
-393z"/>
<path d="M1840 3907 c-49 -16 -133 -102 -148 -153 -28 -94 -8 -169 63 -239 51
-52 102 -75 165 -75 63 0 114 23 165 75 102 101 102 229 0 330 -70 71 -152 91
-245 62z m135 -172 c50 -49 15 -135 -55 -135 -41 0 -80 39 -80 80 0 41 39 80
80 80 19 0 40 -9 55 -25z"/>
<path d="M3120 3680 l0 -160 80 0 80 0 0 160 0 160 -80 0 -80 0 0 -160z"/>
<path d="M2797 3682 c-26 -26 -47 -52 -47 -58 0 -5 52 -61 115 -124 l115 -115
57 58 58 57 -115 115 c-63 63 -119 115 -125 115 -6 0 -32 -22 -58 -48z"/>
<path d="M3422 3617 c-61 -62 -112 -117 -112 -123 0 -13 92 -104 106 -104 5 0
61 52 124 115 l114 115 -54 55 c-30 30 -57 55 -60 55 -3 0 -56 -51 -118 -113z"/>
<path d="M400 2640 l0 -80 880 0 880 0 0 80 0 80 -880 0 -880 0 0 -80z"/>
<path d="M400 2320 l0 -80 560 0 560 0 0 80 0 80 -560 0 -560 0 0 -80z"/>
<path d="M400 2000 l0 -80 800 0 800 0 0 80 0 80 -800 0 -800 0 0 -80z"/>
</g>
</svg>
