<?xml version="1.0" encoding="UTF-8"?>
<!DOCTYPE svg PUBLIC "-//W3C//DTD SVG 1.1//EN" "http://www.w3.org/Graphics/SVG/1.1/DTD/svg11.dtd">
<svg xmlns="http://www.w3.org/2000/svg" version="1.1" width="512px" height="512px" style="shape-rendering:geometricPrecision; text-rendering:geometricPrecision; image-rendering:optimizeQuality; fill-rule:evenodd; clip-rule:evenodd" xmlns:xlink="http://www.w3.org/1999/xlink">
<g><path style="opacity:0.94" fill="#3b92f8" d="M 459.5,-0.5 C 462.167,-0.5 464.833,-0.5 467.5,-0.5C 469.144,0.316435 470.31,1.64977 471,3.5C 471.5,15.4954 471.667,27.4954 471.5,39.5C 483.505,39.3335 495.505,39.5001 507.5,40C 509.35,40.6897 510.684,41.8564 511.5,43.5C 511.5,46.1667 511.5,48.8333 511.5,51.5C 497.729,65.7716 483.729,79.9383 469.5,94C 455.594,95.2991 441.594,95.9658 427.5,96C 415.652,107.681 403.986,119.514 392.5,131.5C 421.831,164.465 437.498,203.132 439.5,247.5C 443.514,247.334 447.514,247.501 451.5,248C 454.516,249.529 455.849,252.029 455.5,255.5C 455.596,257.926 454.93,260.093 453.5,262C 448.964,263.379 444.297,263.879 439.5,263.5C 438.062,299.481 427.062,332.148 406.5,361.5C 426.153,381.653 445.986,401.653 466,421.5C 480.856,440.495 483.523,461.161 474,483.5C 471.552,487.615 468.719,491.448 465.5,495C 479.5,495.333 493.5,495.667 507.5,496C 509.35,496.69 510.684,497.856 511.5,499.5C 511.5,502.167 511.5,504.833 511.5,507.5C 510.5,509.167 509.167,510.5 507.5,511.5C 339.5,511.5 171.5,511.5 3.5,511.5C 1.83333,510.5 0.5,509.167 -0.5,507.5C -0.5,504.833 -0.5,502.167 -0.5,499.5C 0.316435,497.856 1.64977,496.69 3.5,496C 17.5,495.667 31.5,495.333 45.5,495C 30.9454,477.974 27.4454,458.807 35,437.5C 37.5419,431.635 40.8752,426.301 45,421.5C 65.0139,401.653 84.8473,381.653 104.5,361.5C 83.9378,332.148 72.9378,299.481 71.5,263.5C 67.4862,263.666 63.4862,263.499 59.5,263C 56.484,261.471 55.1506,258.971 55.5,255.5C 55.4035,253.074 56.0702,250.907 57.5,249C 62.036,247.621 66.7027,247.121 71.5,247.5C 77.0999,175.434 111.767,122.6 175.5,89C 198.275,78.1397 222.275,72.3063 247.5,71.5C 247.334,67.4862 247.501,63.4862 248,59.5C 249.529,56.484 252.029,55.1506 255.5,55.5C 257.926,55.4035 260.093,56.0702 262,57.5C 263.379,62.036 263.879,66.7027 263.5,71.5C 307.868,73.502 346.535,89.1687 379.5,118.5C 391.486,107.014 403.319,95.3475 415,83.5C 415.034,69.4064 415.701,55.4064 417,41.5C 431.062,27.2709 445.228,13.2709 459.5,-0.5 Z M 454.5,28.5 C 455.329,35.989 455.829,43.6557 456,51.5C 456.374,52.4162 456.874,53.2496 457.5,54C 465.731,55.2729 474.064,55.9395 482.5,56C 474.833,63.6667 467.167,71.3333 459.5,79C 450.173,79.4998 440.839,79.6665 431.5,79.5C 431.334,70.1607 431.5,60.8274 432,51.5C 439.702,43.9649 447.202,36.2983 454.5,28.5 Z M 239.5,88.5 C 242.167,88.5 244.833,88.5 247.5,88.5C 244.88,101.727 249.713,106.06 262,101.5C 263.367,97.3004 263.867,92.9671 263.5,88.5C 303.164,90.5952 337.497,104.928 366.5,131.5C 359.833,138.833 352.833,145.833 345.5,152.5C 303.458,118.795 256.791,110.628 205.5,128C 156.044,149.128 127.211,186.294 119,239.5C 114.606,305.358 141.772,352.858 200.5,382C 252.234,401.658 299.9,394.658 343.5,361C 384.579,323.424 399.413,277.257 388,222.5C 382.36,201.217 372.527,182.217 358.5,165.5C 365.167,158.167 372.167,151.167 379.5,144.5C 406.072,173.503 420.405,207.836 422.5,247.5C 409.273,244.88 404.94,249.713 409.5,262C 413.7,263.367 418.033,263.867 422.5,263.5C 418.442,316.462 395.442,358.962 353.5,391C 326.616,410.129 296.616,420.629 263.5,422.5C 266.12,409.273 261.287,404.94 249,409.5C 247.633,413.7 247.133,418.033 247.5,422.5C 194.538,418.442 152.038,395.442 120,353.5C 100.871,326.616 90.3706,296.616 88.5,263.5C 101.727,266.12 106.06,261.287 101.5,249C 97.3004,247.633 92.9671,247.133 88.5,247.5C 91.7242,198.218 112.058,157.718 149.5,126C 175.962,105.012 205.962,92.5125 239.5,88.5 Z M 253.5,135.5 C 278.178,135.834 300.845,142.667 321.5,156C 325.58,158.704 329.247,161.871 332.5,165.5C 325.833,172.833 318.833,179.833 311.5,186.5C 284.308,166.414 254.641,161.914 222.5,173C 184.332,190.527 165.832,220.36 167,262.5C 171.468,300.609 191.635,326.442 227.5,340C 270.732,351.038 305.232,338.538 331,302.5C 344.154,279.112 347.154,254.446 340,228.5C 336.39,217.943 331.223,208.276 324.5,199.5C 331.485,192.014 338.652,184.681 346,177.5C 375.798,214.959 382.465,256.293 366,301.5C 344.117,348.623 307.117,373.289 255,375.5C 203.898,373.298 167.231,349.298 145,303.5C 127.167,256.648 134.167,213.982 166,175.5C 189.941,150.611 219.108,137.278 253.5,135.5 Z M 253.5,183.5 C 270.435,183.698 285.435,189.032 298.5,199.5C 291.515,206.986 284.348,214.319 277,221.5C 273.206,218.899 269.039,217.066 264.5,216C 240.057,212.463 223.89,222.296 216,245.5C 212.416,275.421 225.583,292.421 255.5,296.5C 284.856,292.642 298.023,275.975 295,246.5C 293.934,241.961 292.101,237.794 289.5,234C 296.681,226.652 304.014,219.485 311.5,212.5C 321.952,225.02 326.952,239.52 326.5,256C 324.663,291.169 306.996,314.169 273.5,325C 237.099,331.767 209.599,319.267 191,287.5C 176.359,250.774 184.526,220.274 215.5,196C 227.262,188.734 239.929,184.567 253.5,183.5 Z M 249.5,232.5 C 254.599,232.175 259.599,232.675 264.5,234C 259.333,239.167 254.167,244.333 249,249.5C 245.23,257.016 247.397,262.016 255.5,264.5C 256.795,263.902 258.128,263.402 259.5,263C 265.635,257.866 271.469,252.366 277,246.5C 281.308,261.717 276.141,272.217 261.5,278C 247.394,280.366 237.894,274.866 233,261.5C 230.759,247.305 236.259,237.638 249.5,232.5 Z M 114.5,376.5 C 123.609,384.438 132.609,392.604 141.5,401C 151.635,408.458 162.301,415.125 173.5,421C 151.5,443 129.5,465 107.5,487C 86.1406,499.868 67.9739,496.368 53,476.5C 46.2178,462.23 47.2178,448.563 56,435.5C 75.7017,415.965 95.2017,396.299 114.5,376.5 Z M 394.5,376.5 C 415.082,395.58 435.249,415.247 455,435.5C 467.028,455.104 464.528,472.604 447.5,488C 432.626,496.942 417.959,496.609 403.5,487C 381.5,465 359.5,443 337.5,421C 359.468,410.011 378.468,395.177 394.5,376.5 Z M 190.5,428.5 C 208.919,435.117 227.919,438.784 247.5,439.5C 247.334,443.514 247.501,447.514 248,451.5C 249.529,454.516 252.029,455.849 255.5,455.5C 257.926,455.596 260.093,454.93 262,453.5C 263.379,448.964 263.879,444.297 263.5,439.5C 282.771,438.912 301.438,435.246 319.5,428.5C 341.986,450.486 364.32,472.653 386.5,495C 299.167,495.667 211.833,495.667 124.5,495C 146.702,472.965 168.702,450.799 190.5,428.5 Z"/></g>
</svg>
