<?xml version="1.0" standalone="no"?>
<!DOCTYPE svg PUBLIC "-//W3C//DTD SVG 20010904//EN"
 "http://www.w3.org/TR/2001/REC-SVG-20010904/DTD/svg10.dtd">
<svg version="1.0" xmlns="http://www.w3.org/2000/svg"
 width="512.000000pt" height="512.000000pt" viewBox="0 0 512.000000 512.000000"
 preserveAspectRatio="xMidYMid meet">

<g transform="translate(0.000000,512.000000) scale(0.100000,-0.100000)"
fill="#3b92f8" stroke="none">
<path d="M2345 4825 c-286 -44 -537 -169 -743 -369 -198 -191 -322 -405 -388
-669 -35 -137 -44 -384 -20 -534 61 -390 291 -736 632 -955 117 -75 293 -145
454 -180 127 -28 392 -31 523 -5 286 57 540 197 743 409 247 260 375 577 376
938 2 289 -73 537 -235 778 l-55 82 620 0 c683 0 659 2 698 -63 19 -31 20 -59
20 -1229 l0 -1198 -314 0 -315 0 -20 -26 c-24 -30 -26 -43 -10 -77 20 -44 42
-47 359 -47 l300 0 0 -206 c0 -230 -7 -261 -64 -292 -29 -16 -183 -17 -2346
-17 -2280 0 -2315 0 -2347 20 -58 34 -63 59 -63 289 l0 206 1939 2 c1891 3
1939 3 1960 22 27 25 28 79 1 106 -20 20 -33 20 -1960 20 l-1940 0 0 1198 c0
1170 1 1198 20 1229 39 64 30 63 553 63 462 0 474 0 495 20 32 30 30 82 -4
109 -26 21 -36 21 -499 21 -550 0 -546 1 -630 -84 -93 -93 -86 55 -83 -1661
l3 -1510 22 -41 c36 -67 70 -101 131 -131 l57 -28 853 -3 852 -3 0 -289 0
-290 -124 0 c-110 0 -126 -2 -150 -21 -34 -27 -36 -77 -3 -107 l23 -22 887 0
c874 0 887 0 907 20 30 30 27 83 -6 109 -24 19 -40 21 -150 21 l-124 0 0 290
0 289 863 3 862 3 57 28 c61 30 95 64 131 131 l22 41 3 1510 c3 1716 10 1568
-83 1661 -87 87 -53 84 -852 84 l-693 0 -37 33 c-112 99 -158 121 -203 97 -23
-13 -39 -59 -29 -87 4 -11 38 -46 76 -76 312 -252 475 -585 476 -972 0 -210
-43 -382 -141 -569 -172 -327 -472 -552 -844 -632 -111 -24 -371 -24 -476 -1
-251 57 -448 164 -622 337 -183 182 -301 405 -345 654 -19 114 -19 320 0 427
71 383 320 712 670 886 252 126 575 157 852 81 43 -12 91 -21 107 -21 53 0 83
65 54 114 -17 26 -141 64 -273 84 -119 18 -299 18 -410 0z m685 -4105 l0 -290
-480 0 -480 0 0 290 0 290 480 0 480 0 0 -290z"/>
<path d="M1710 4190 c-33 -33 -30 -75 6 -107 20 -19 37 -23 85 -23 39 0 61 -4
64 -12 6 -15 225 -1176 225 -1190 0 -23 50 -58 83 -58 l35 0 -16 -43 c-20 -56
-10 -105 29 -145 52 -53 143 -55 191 -4 51 54 59 95 34 157 l-15 35 149 0 149
0 -15 -27 c-20 -39 -17 -102 6 -140 51 -84 180 -83 236 2 22 34 22 106 0 139
l-16 26 43 0 c86 0 130 76 74 128 -23 21 -28 22 -427 24 l-404 3 -7 35 c-4 19
-10 54 -14 77 l-6 42 435 3 c393 3 437 5 452 20 12 12 37 122 85 375 38 197
69 373 69 391 0 22 -8 41 -25 57 l-24 25 -579 0 -579 0 -12 59 c-24 120 -87
171 -213 171 -65 0 -81 -3 -98 -20z m600 -388 c0 -16 3 -63 6 -105 l7 -77
-112 0 c-61 0 -111 2 -111 4 0 4 -27 142 -36 184 -4 22 -4 22 121 22 l125 0 0
-28z m375 -64 c-4 -51 -8 -99 -10 -105 -3 -9 -33 -13 -103 -13 l-99 0 -7 77
c-3 42 -6 89 -6 105 l0 28 115 0 116 0 -6 -92z m395 88 c0 -2 -9 -48 -20 -101
-11 -53 -20 -99 -20 -101 0 -2 -47 -4 -105 -4 l-105 0 0 53 c0 28 3 76 6 105
l7 52 118 0 c66 0 119 -2 119 -4z m-746 -388 c3 -18 7 -66 11 -105 l5 -73 -89
0 c-77 0 -90 3 -95 18 -5 16 -36 179 -36 188 0 2 45 4 100 4 l99 0 5 -32z
m326 -5 c0 -21 -3 -68 -7 -105 l-6 -68 -73 0 -73 0 -5 53 c-3 28 -7 76 -9 105
l-4 52 88 0 89 0 0 -37z m350 33 c0 -9 -31 -172 -36 -188 -5 -15 -18 -18 -91
-18 l-86 0 6 68 c4 37 7 84 7 105 l0 37 100 0 c55 0 100 -2 100 -4z"/>
<path d="M4420 4027 c-39 -20 -50 -53 -50 -159 l0 -98 -109 0 c-106 0 -110 -1
-130 -26 -24 -30 -26 -43 -10 -77 17 -37 50 -47 154 -47 l95 0 0 -89 c0 -103
12 -144 46 -160 35 -16 47 -14 78 10 25 20 26 24 26 129 l0 108 111 4 c108 3
111 4 136 32 18 22 23 35 18 55 -13 54 -29 60 -149 63 l-111 3 -3 111 c-2 90
-6 114 -20 127 -26 23 -55 28 -82 14z"/>
<path d="M453 2508 c-48 -23 -51 -103 -4 -127 12 -7 111 -11 263 -11 264 0
279 3 292 55 7 29 -15 79 -39 89 -29 11 -488 5 -512 -6z"/>
<path d="M443 2165 c-11 -8 -24 -26 -27 -40 -7 -29 15 -79 39 -89 9 -3 212 -6
451 -6 l435 0 24 25 c34 33 33 77 -1 104 -26 21 -37 21 -463 21 -369 0 -440
-2 -458 -15z"/>
</g>
</svg>
