<?xml version="1.0" standalone="no"?>
<!DOCTYPE svg PUBLIC "-//W3C//DTD SVG 20010904//EN"
 "http://www.w3.org/TR/2001/REC-SVG-20010904/DTD/svg10.dtd">
<svg version="1.0" xmlns="http://www.w3.org/2000/svg"
 width="512.000000pt" height="512.000000pt" viewBox="0 0 512.000000 512.000000"
 preserveAspectRatio="xMidYMid meet">

<g transform="translate(0.000000,512.000000) scale(0.100000,-0.100000)"
fill="#3b92f8" stroke="none">
<path d="M2145 5114 c-403 -34 -778 -160 -1100 -372 -554 -363 -916 -930
-1022 -1597 -24 -156 -24 -498 0 -655 79 -501 284 -919 626 -1273 369 -382
851 -621 1386 -688 125 -15 421 -15 540 0 226 30 441 89 643 177 70 30 134 58
142 60 12 4 39 -64 124 -308 123 -352 133 -375 176 -411 61 -52 132 -59 209
-20 63 31 72 45 162 245 l65 147 160 -161 c87 -88 179 -173 203 -189 48 -31
106 -38 158 -19 32 12 427 401 449 442 17 32 18 105 3 145 -6 15 -89 107 -185
203 -96 97 -174 178 -174 182 0 3 73 38 162 79 103 47 173 85 194 106 54 54
68 137 35 208 -39 85 -40 85 -591 276 -80 28 -148 54 -153 58 -4 4 14 52 39
107 26 54 68 164 95 244 221 670 122 1404 -268 1988 -100 150 -138 197 -268
330 -128 133 -225 214 -378 316 -279 186 -615 314 -948 361 -114 16 -390 27
-484 19z m430 -179 c472 -62 910 -279 1242 -614 580 -586 773 -1460 492 -2228
-28 -79 -113 -270 -124 -281 -6 -6 -166 49 -163 56 2 4 15 30 30 58 109 208
186 482 208 744 33 387 -65 811 -266 1148 -421 706 -1228 1079 -2029 938 -537
-95 -1006 -403 -1308 -861 -211 -320 -317 -682 -317 -1078 1 -317 59 -572 195
-852 271 -558 773 -947 1382 -1071 212 -42 510 -49 704 -14 185 33 376 94 534
171 65 32 102 45 106 37 4 -6 17 -42 30 -80 28 -81 38 -68 -111 -134 -293
-129 -558 -185 -875 -185 -250 0 -440 30 -674 107 -1100 362 -1708 1544 -1365
2654 106 342 280 628 538 885 329 327 755 537 1216 599 143 19 412 20 555 1z
m-115 -326 c628 -57 1184 -440 1455 -1003 261 -541 239 -1155 -59 -1683 -1 -1
-109 37 -241 84 -210 75 -249 86 -310 86 -54 1 -81 -4 -117 -22 -63 -30 -131
-107 -149 -168 -25 -87 -17 -131 75 -392 48 -134 85 -245 84 -246 -2 -2 -50
-26 -107 -55 -276 -138 -606 -201 -925 -178 -552 40 -1066 343 -1369 808 -464
713 -366 1649 235 2250 331 331 774 519 1248 529 36 0 117 -4 180 -10z m1655
-2959 c439 -155 806 -285 816 -291 11 -5 19 -16 19 -23 0 -7 -90 -54 -205
-105 -174 -79 -208 -98 -225 -126 -22 -36 -26 -85 -9 -118 6 -12 99 -111 207
-219 l197 -198 -180 -180 -180 -180 -160 158 c-248 245 -257 252 -307 252 -82
0 -95 -16 -194 -238 -83 -187 -106 -225 -125 -205 -15 16 -571 1609 -572 1640
-2 52 54 112 104 113 9 0 375 -126 814 -280z"/>
<path d="M2249 3981 c-28 -29 -29 -32 -29 -134 l0 -104 -38 -7 c-110 -17 -271
-144 -326 -257 -99 -205 -63 -441 91 -596 95 -95 197 -139 353 -153 117 -10
171 -31 238 -94 143 -134 143 -358 0 -492 -74 -69 -125 -89 -233 -89 -78 0
-97 4 -146 28 -106 52 -172 148 -190 275 -12 82 -36 112 -89 112 -58 0 -85
-35 -82 -110 5 -128 70 -262 171 -353 57 -50 153 -101 214 -112 l37 -7 0 -105
c0 -102 1 -105 29 -134 18 -17 40 -29 56 -29 16 0 38 12 56 29 28 29 29 32 29
134 l0 105 39 7 c76 13 160 62 235 138 82 83 120 154 143 266 49 235 -99 490
-332 572 -31 11 -102 24 -158 29 -164 16 -258 74 -319 199 -19 39 -23 62 -23
146 0 89 3 106 27 151 35 67 115 138 186 164 46 18 72 21 137 18 95 -5 157
-33 223 -99 55 -56 80 -110 97 -206 10 -57 19 -82 35 -95 47 -38 121 -12 136
47 3 14 1 54 -5 91 -36 206 -164 353 -361 415 l-55 17 -3 98 c-2 108 -11 136
-49 153 -39 18 -63 13 -94 -18z"/>
<path d="M3701 2623 c-25 -21 -111 -269 -111 -321 0 -43 38 -82 79 -82 53 0
75 33 125 185 25 77 46 150 46 161 0 12 -9 33 -21 48 -25 32 -85 36 -118 9z"/>
<path d="M2655 1565 c-71 -30 -135 -62 -142 -72 -38 -51 2 -133 64 -133 39 0
294 104 310 127 22 29 16 81 -12 108 -35 36 -72 31 -220 -30z"/>
</g>
</svg>
