<svg xmlns="http://www.w3.org/2000/svg" width="512" height="512" viewBox="0 0 512 512" version="1.1"><path d="" stroke="none" fill="#3b92f8" fill-rule="evenodd"/><path d="M 44.293 14.002 C 31.175 15.939, 18.524 25.449, 12.693 37.759 L 9.500 44.500 9.500 193 L 9.500 341.500 12.603 348.047 C 16.491 356.252, 20.885 361.308, 28.298 366.108 C 38.896 372.969, 39.290 373, 116.947 373 L 186 373 186 378.776 C 186 392.652, 181.905 414.913, 176.347 431.250 L 172.690 442 155.595 442.044 C 143.842 442.074, 137.312 442.512, 134.698 443.444 C 122.737 447.710, 115.613 458.105, 115.735 471.113 C 115.834 481.577, 121.885 490.832, 131.818 495.710 L 137.500 498.500 256 498.500 L 374.500 498.500 380.182 495.710 C 390.115 490.832, 396.166 481.577, 396.265 471.113 C 396.387 458.105, 389.263 447.710, 377.302 443.444 C 374.686 442.511, 368.148 442.074, 356.345 442.044 L 339.189 442 336.109 433.486 C 329.976 416.538, 325.061 392.283, 325.018 378.750 L 325 373 334.250 373.008 L 343.500 373.015 345.896 377.258 C 355.996 395.137, 375.448 410.088, 396.568 416.203 C 403.352 418.168, 406.671 418.489, 419.500 418.422 C 433.093 418.350, 435.297 418.082, 443 415.555 C 458.434 410.492, 469.051 403.902, 479.557 392.864 C 490.632 381.229, 497.413 368.841, 501.019 353.657 C 502.988 345.367, 503.020 342.365, 502.762 190.855 L 502.500 36.500 499.836 31.500 C 496.276 24.817, 490.777 19.701, 483.500 16.302 L 477.500 13.500 263.500 13.367 C 145.800 13.294, 47.157 13.580, 44.293 14.002 M 44.500 28.938 C 36.008 31.015, 29.538 36.511, 25.592 45 C 23.511 49.476, 23.499 50.131, 23.230 169.250 L 22.961 289 185.230 289 L 347.500 289 352.362 282.431 C 361.840 269.625, 379.478 257.841, 396.500 252.941 C 405.826 250.257, 421.733 249.361, 431.688 250.960 C 452.476 254.300, 472.049 265.785, 485.166 282.340 L 489 287.180 488.994 166.340 C 488.991 86.302, 488.640 44.244, 487.956 41.781 C 486.574 36.807, 482.473 32.120, 477.541 29.880 C 473.659 28.116, 465.108 28.047, 260.500 28.124 C 143.350 28.169, 46.150 28.535, 44.500 28.938 M 250.655 53.829 C 249.214 55.421, 249 58.695, 249 79.174 C 249 101.470, 249.104 102.785, 251.013 104.512 C 253.594 106.847, 258.406 106.847, 260.987 104.512 C 262.896 102.784, 263 101.471, 263 79 C 263 57.319, 262.845 55.170, 261.171 53.655 C 258.700 51.418, 252.747 51.517, 250.655 53.829 M 185.655 69.829 C 182.374 73.454, 183.598 77.126, 194.147 95.316 C 203.955 112.228, 206.271 115, 210.593 115 C 212.906 115, 217 110.364, 217 107.745 C 217 105.341, 199.736 74.302, 196.145 70.250 C 193.644 67.427, 188.032 67.202, 185.655 69.829 M 316.145 69.855 C 313.086 72.914, 295 105.398, 295 107.834 C 295 110.381, 299.130 115, 301.407 115 C 305.729 115, 308.045 112.228, 317.853 95.316 C 328.542 76.885, 329.816 72.954, 326.171 69.655 C 323.731 67.446, 318.448 67.552, 316.145 69.855 M 240.500 112.627 C 233.213 113.726, 216.432 118.347, 209.773 121.088 C 182.507 132.311, 159.555 154.276, 145.883 182.228 L 142.592 188.956 146.045 196.093 C 165.932 237.202, 206.201 263.898, 251 265.672 C 294.639 267.400, 333.488 247.158, 357.901 209.971 C 360.980 205.279, 364.820 198.642, 366.434 195.221 L 369.368 189 366.434 182.750 C 361.765 172.804, 350.830 157.144, 342.850 148.977 C 326.112 131.845, 307.639 121.198, 284.500 115.348 C 276.422 113.306, 271.521 112.758, 259 112.497 C 250.475 112.320, 242.150 112.378, 240.500 112.627 M 134.223 114.557 C 131.407 116.529, 131.124 122.925, 133.750 125.219 C 137.547 128.536, 162.328 142, 164.637 142 C 167.344 142, 172 137.948, 172 135.593 C 172 131.419, 169.267 129.013, 155.616 121.169 C 147.797 116.676, 140.284 113, 138.922 113 C 137.560 113, 135.445 113.701, 134.223 114.557 M 356.330 121.184 C 339.627 130.813, 337.490 133.539, 342.073 139.365 C 345.346 143.527, 348.419 142.799, 363.159 134.374 C 379.651 124.946, 380 124.647, 380 119.902 C 380 115.625, 377.340 112.994, 373.027 113.008 C 371.637 113.012, 364.124 116.692, 356.330 121.184 M 234 128.959 C 213.372 133.371, 196.118 142.815, 180.919 158.013 C 173.852 165.079, 165.341 176.524, 161.361 184.315 L 158.900 189.130 162.398 195.384 C 177.003 221.501, 200.977 240.291, 229.825 248.233 C 236.251 250.002, 240.430 250.359, 255.500 250.423 C 271.361 250.491, 274.508 250.225, 281.978 248.184 C 311.123 240.222, 334.916 221.645, 349.602 195.384 L 353.100 189.130 350.639 184.315 C 344.227 171.765, 330.473 155.721, 318.817 147.193 C 306.309 138.043, 291.117 131.427, 276.049 128.569 C 264.772 126.430, 244.967 126.613, 234 128.959 M 247.402 129.945 C 218.178 134.527, 196.621 159.642, 196.714 189 C 196.789 212.568, 210.141 233.297, 231.500 243.006 C 261.275 256.540, 296.519 243.295, 310.015 213.500 C 320.291 190.815, 315.540 164.609, 297.966 147.034 C 284.796 133.865, 265.024 127.182, 247.402 129.945 M 247.108 145.082 C 224.406 149.540, 208.052 172.997, 211.815 195.704 C 214.995 214.890, 229.630 229.608, 248.966 233.063 C 277.840 238.223, 305.007 211.396, 300.212 182.458 C 295.983 156.941, 272.147 140.164, 247.108 145.082 M 401.216 267.019 C 365.437 276.393, 343.089 312.465, 350.583 348.746 C 357.269 381.119, 385.617 404.037, 418.910 403.985 C 430.808 403.967, 439.174 402.056, 449.500 396.999 C 467.594 388.138, 481.623 370.763, 486.640 351 C 490.502 335.787, 487.999 316.481, 480.229 301.545 C 474.966 291.428, 461.077 277.730, 451 272.717 C 435.625 265.068, 416.859 262.920, 401.216 267.019 M 415.500 273.155 C 412.169 274.977, 411 277.175, 411 281.618 C 411 285.754, 410.877 285.910, 405.750 288.267 C 398.879 291.426, 394.586 295.148, 391.230 300.855 C 388.871 304.869, 388.500 306.587, 388.500 313.500 C 388.500 322.709, 390.255 327.255, 396.044 333.044 C 401.111 338.111, 407.881 341.095, 416.500 342.062 C 428.888 343.451, 434.500 347.804, 434.500 356.025 C 434.500 360.176, 434.015 361.389, 431.190 364.304 C 424.482 371.225, 415.458 371.448, 406.756 364.908 C 403.618 362.551, 400.452 361, 398.777 361 C 394.944 361, 392 364.224, 392 368.422 C 392 371.266, 392.803 372.533, 396.750 375.920 C 399.363 378.161, 403.863 380.979, 406.750 382.182 C 411.915 384.333, 412 384.437, 412 388.611 C 412 392.005, 412.528 393.270, 414.635 394.927 C 417.946 397.532, 420.041 397.542, 423.312 394.970 C 425.306 393.401, 425.962 391.884, 426.196 388.298 C 426.493 383.767, 426.607 383.621, 430.995 382.163 C 437.681 379.942, 446.364 370.880, 448.411 363.987 C 449.285 361.045, 450 357.450, 450 356 C 450 350.643, 446.976 343.254, 442.878 338.599 C 437.451 332.434, 430.486 328.991, 421.077 327.823 C 411.935 326.688, 407.363 324.643, 404.886 320.580 C 402.306 316.350, 402.435 309.988, 405.171 306.509 C 407.636 303.376, 414.240 300.055, 418.072 300.022 C 422.571 299.984, 429.539 302.958, 433.332 306.536 C 437.711 310.666, 441.118 310.973, 444.545 307.545 C 447.990 304.101, 447.658 300.734, 443.411 296.034 C 439.962 292.216, 430.811 287, 427.562 287 C 426.426 287, 425.996 285.977, 425.986 283.250 C 425.965 277.413, 424.980 275.041, 421.923 273.460 C 418.594 271.739, 418.129 271.717, 415.500 273.155 M 23.191 320.250 C 23.658 339.427, 25.195 344.361, 32.785 351.042 C 41.207 358.455, 30.776 358, 192.182 358 C 271.832 358, 337 357.775, 337 357.500 C 337 357.226, 336.274 352.838, 335.387 347.750 C 333.375 336.219, 334.088 323.377, 337.366 312.058 L 339.700 304 181.247 304 L 22.794 304 23.191 320.250 M 232 326 C 230.889 327.111, 230 329.333, 230 331 C 230 332.667, 230.889 334.889, 232 336 C 233.879 337.879, 235.333 338, 256 338 C 276.667 338, 278.121 337.879, 280 336 C 281.111 334.889, 282 332.667, 282 331 C 282 329.333, 281.111 327.111, 280 326 C 278.121 324.121, 276.667 324, 256 324 C 235.333 324, 233.879 324.121, 232 326 M 201 377.539 C 201 390.794, 196.069 419.647, 191.535 432.925 C 190.141 437.009, 189 440.721, 189 441.175 C 189 441.629, 219.198 442, 256.107 442 C 315.954 442, 323.150 441.834, 322.626 440.469 C 316.363 424.146, 310.075 393.113, 310.020 378.250 L 310 373 255.500 373 L 201 373 201 377.539 M 136.343 459.056 C 130.068 463.076, 128.529 472.589, 133.194 478.520 C 137.697 484.244, 132.221 484, 256 484 C 379.779 484, 374.303 484.244, 378.806 478.520 C 383.524 472.521, 381.920 462.968, 375.531 459.019 C 372.302 457.024, 370.902 457, 255.882 457.017 C 140.788 457.034, 139.465 457.056, 136.343 459.056" stroke="none" fill="#3b92f8" fill-rule="evenodd"/></svg>