<?xml version="1.0" standalone="no"?>
<!DOCTYPE svg PUBLIC "-//W3C//DTD SVG 20010904//EN"
 "http://www.w3.org/TR/2001/REC-SVG-20010904/DTD/svg10.dtd">
<svg version="1.0" xmlns="http://www.w3.org/2000/svg"
 width="512.000000pt" height="512.000000pt" viewBox="0 0 512.000000 512.000000"
 preserveAspectRatio="xMidYMid meet">

<g transform="translate(0.000000,512.000000) scale(0.100000,-0.100000)"
fill="#3b92f8" stroke="none">
<path d="M815 5113 c-125 -18 -301 -85 -402 -154 -69 -47 -188 -164 -239 -236
-58 -80 -117 -207 -146 -313 -22 -82 -23 -98 -23 -485 0 -388 1 -403 23 -485
49 -177 134 -322 262 -444 126 -120 258 -194 422 -238 82 -22 95 -22 881 -25
l797 -4 0 -510 c0 -344 -3 -508 -10 -504 -20 12 -59 102 -75 171 -23 101 -74
171 -160 217 -33 18 -57 22 -130 22 -81 0 -95 -3 -143 -29 -60 -34 -102 -77
-134 -139 -46 -90 -31 -289 37 -494 81 -241 161 -358 461 -663 126 -129 242
-255 256 -280 40 -69 58 -135 68 -241 9 -107 28 -155 82 -205 77 -73 37 -69
688 -69 l585 0 46 27 c26 15 59 42 74 60 55 65 58 82 66 383 4 154 11 294 17
311 5 18 28 73 51 122 88 198 104 322 99 807 l-3 350 -26 56 c-33 71 -87 125
-157 157 -47 21 -64 24 -131 20 -50 -3 -90 -12 -116 -25 l-41 -21 -40 42 c-61
64 -123 91 -214 91 -61 0 -85 -5 -125 -25 l-48 -25 -44 46 c-63 68 -126 92
-222 87 -42 -3 -84 -8 -93 -12 -17 -8 -18 2 -18 132 l0 141 668 4 c653 3 669
3 752 25 47 13 126 42 175 66 252 123 431 341 507 616 22 82 23 97 23 485 0
388 -1 403 -23 485 -29 106 -88 233 -146 313 -51 72 -170 189 -239 236 -69 47
-203 108 -294 134 l-78 22 -1745 1 c-960 1 -1758 -1 -1775 -3z m3573 -191
c268 -83 462 -282 539 -553 16 -57 18 -106 18 -444 0 -338 -2 -387 -18 -444
-85 -299 -318 -514 -612 -566 -72 -12 -196 -15 -706 -15 l-618 0 -3 268 c-3
254 -4 269 -26 317 -29 63 -83 119 -147 153 -69 36 -179 38 -247 4 -60 -30
-119 -89 -149 -150 -23 -45 -24 -57 -27 -319 l-3 -273 -748 0 c-627 0 -763 2
-836 15 -294 52 -527 267 -612 566 -16 57 -18 106 -18 444 0 417 2 432 65 571
107 237 338 411 595 447 17 2 806 4 1755 3 l1725 -1 73 -23z m-1632 -1447 c13
-8 32 -27 41 -42 17 -25 18 -77 23 -665 6 -705 1 -663 71 -674 46 -8 86 23 94
74 16 93 55 132 133 132 34 0 49 -6 79 -34 35 -31 37 -38 40 -102 5 -91 10
-111 33 -134 44 -44 140 -11 140 49 0 44 38 108 74 125 45 21 74 20 114 -4 50
-31 72 -75 72 -147 0 -34 5 -73 11 -86 12 -27 47 -47 80 -47 30 0 79 53 79 85
0 14 7 39 15 55 47 91 168 95 221 6 18 -29 19 -57 19 -431 0 -454 -5 -493 -85
-663 -68 -144 -72 -167 -79 -467 -6 -279 -10 -303 -51 -325 -12 -6 -209 -10
-555 -10 l-537 0 -27 28 c-25 24 -28 37 -34 118 -15 206 -62 289 -306 538
-263 266 -285 291 -345 381 -97 145 -153 282 -181 443 -28 162 -14 231 54 267
85 44 171 -2 192 -103 29 -142 97 -252 203 -325 108 -76 142 -83 187 -38 l29
29 0 944 c0 923 0 944 20 976 41 68 115 88 176 47z"/>
<path d="M2695 4598 c-44 -24 -45 -28 -45 -333 l0 -292 23 -21 c33 -31 87 -29
118 4 l24 26 3 268 c3 296 -2 331 -53 350 -33 12 -45 12 -70 -2z"/>
<path d="M665 4431 c-66 -16 -126 -74 -144 -138 -14 -51 -14 -685 0 -736 13
-47 63 -106 106 -123 44 -19 127 -17 166 2 44 23 475 321 510 353 42 38 58 76
58 136 0 60 -16 97 -58 136 -35 34 -491 348 -518 359 -36 13 -89 18 -120 11z
m299 -337 c124 -85 226 -161 226 -169 0 -18 -455 -330 -483 -330 l-22 0 -3
324 c-2 338 0 361 38 341 10 -5 120 -80 244 -166z"/>
<path d="M1905 4325 c-17 -16 -25 -35 -25 -58 0 -29 24 -62 170 -238 94 -112
182 -214 196 -226 52 -47 129 -20 140 48 6 35 1 43 -151 225 -214 256 -231
274 -273 274 -22 0 -41 -8 -57 -25z"/>
<path d="M3454 4335 c-33 -23 -368 -424 -378 -452 -12 -34 15 -90 48 -99 64
-16 71 -10 268 224 166 196 188 227 188 258 0 66 -73 107 -126 69z"/>
<path d="M1585 3488 c-52 -28 -62 -92 -20 -133 l24 -25 288 0 c302 1 307 1
331 47 19 35 14 63 -17 94 l-29 29 -279 0 c-182 -1 -285 -4 -298 -12z"/>
<path d="M3276 3478 c-40 -35 -43 -78 -11 -116 l27 -32 288 0 c271 0 289 1
312 20 14 11 28 31 30 44 7 36 -17 85 -47 96 -15 6 -143 10 -300 10 -270 0
-274 0 -299 -22z"/>
</g>
</svg>
