<?xml version="1.0" standalone="no"?>
<!DOCTYPE svg PUBLIC "-//W3C//DTD SVG 20010904//EN"
 "http://www.w3.org/TR/2001/REC-SVG-20010904/DTD/svg10.dtd">
<svg version="1.0" xmlns="http://www.w3.org/2000/svg"
 width="512.000000pt" height="512.000000pt" viewBox="0 0 512.000000 512.000000"
 preserveAspectRatio="xMidYMid meet">

<g transform="translate(0.000000,512.000000) scale(0.100000,-0.100000)"
fill="#3b92f8" stroke="none">
<path d="M1980 5109 c-294 -20 -596 -122 -850 -287 -121 -78 -227 -167 -234
-196 -14 -54 34 -106 86 -93 13 4 48 27 78 53 131 110 336 227 505 287 113 40
294 77 424 85 442 30 847 -103 1188 -389 85 -71 227 -224 220 -237 -2 -4 -69
-122 -147 -262 -170 -304 -171 -305 -158 -342 19 -54 74 -64 116 -20 15 15 86
132 157 260 115 205 131 230 143 215 34 -46 124 -239 155 -333 68 -199 81
-288 81 -530 -1 -118 -5 -228 -11 -245 l-9 -30 -235 -5 c-262 -6 -269 -7 -332
-80 -19 -23 -40 -61 -46 -85 -7 -28 -11 -188 -11 -454 l0 -410 -85 -56 c-168
-112 -381 -201 -570 -239 -95 -19 -246 -36 -257 -30 -5 3 -8 380 -8 839 l0
834 -26 20 c-27 21 -32 21 -857 21 l-830 0 7 73 c30 311 132 572 331 851 41
56 43 73 14 110 -29 37 -81 36 -116 -1 -49 -54 -153 -220 -207 -333 -105 -218
-162 -442 -173 -673 -6 -124 -5 -128 17 -152 l23 -25 834 0 833 0 2 -836 3
-836 30 -25 c29 -25 31 -25 140 -19 299 19 616 117 838 259 l57 37 0 -885 0
-884 24 -28 24 -28 432 0 432 0 19 24 c18 22 19 43 19 336 l0 314 -26 20 c-36
28 -60 26 -95 -8 l-29 -29 0 -256 0 -256 -322 2 -323 3 -3 1341 -2 1341 21 27
20 26 283 0 c228 0 286 -3 302 -14 19 -14 19 -39 24 -991 l5 -977 24 -19 c30
-25 76 -24 101 1 20 20 20 33 20 1002 0 974 0 982 -21 1025 -23 48 -67 89
-118 110 -29 12 -32 18 -27 41 17 71 18 360 2 478 -36 272 -133 539 -272 748
l-36 54 62 111 62 111 522 0 523 0 21 23 c27 29 28 67 3 98 l-19 24 -548 3
c-378 2 -557 -1 -575 -8 -18 -8 -42 -39 -74 -98 -84 -150 -66 -144 -152 -52
-84 90 -225 206 -328 273 -172 110 -410 206 -610 246 -89 18 -136 23 -320 35
-27 1 -102 -1 -165 -5z"/>
<path d="M3954 5010 c-26 -10 -54 -48 -54 -71 0 -9 9 -28 21 -43 l20 -26 404
0 c403 0 404 0 425 22 37 40 22 98 -31 117 -39 13 -753 14 -785 1z"/>
<path d="M4300 3410 c-30 -30 -27 -83 6 -109 26 -20 38 -21 321 -21 l294 0 24
25 c14 13 25 36 25 50 0 14 -11 37 -25 50 l-24 25 -301 0 c-287 0 -301 -1
-320 -20z"/>
<path d="M4307 3090 c-34 -27 -37 -80 -7 -110 19 -19 33 -20 324 -20 l305 0
20 26 c26 33 27 65 2 95 l-19 24 -299 3 c-292 3 -300 2 -326 -18z"/>
<path d="M25 3055 c-21 -20 -25 -33 -25 -87 0 -200 57 -460 145 -666 185 -431
548 -787 978 -957 37 -15 67 -31 65 -35 -2 -4 -48 -104 -103 -223 l-100 -217
-407 0 c-277 0 -415 -4 -431 -11 -25 -11 -47 -47 -47 -75 0 -8 11 -26 25 -39
l24 -25 454 0 c419 0 456 1 475 17 11 10 74 134 139 276 113 249 119 258 143
253 112 -25 264 -45 354 -48 107 -3 108 -3 132 25 l24 28 -2 886 -3 885 -24
19 c-22 18 -52 19 -908 19 l-884 0 -24 -25z m1695 -905 l0 -780 -42 0 c-51 0
-224 25 -255 37 -21 8 -20 10 27 113 27 58 49 112 50 120 0 23 -29 60 -56 70
-50 19 -71 -2 -131 -130 -31 -66 -61 -120 -66 -120 -5 0 -52 18 -104 40 -223
93 -441 254 -599 442 -230 275 -347 553 -389 931 l-6 57 785 0 786 0 0 -780z"/>
<path d="M4297 2762 c-24 -27 -22 -85 4 -108 19 -18 42 -19 293 -22 149 -2
286 0 304 3 68 13 95 80 49 123 -23 22 -29 22 -329 22 -283 0 -306 -1 -321
-18z"/>
<path d="M4304 1886 c-57 -27 -110 -84 -124 -136 -13 -48 -13 -1685 0 -1710 5
-10 24 -23 41 -29 43 -15 806 -15 845 -1 56 22 53 -21 53 880 1 819 0 836 -20
880 -25 56 -53 86 -104 113 -38 21 -55 22 -340 25 -298 2 -300 2 -351 -22z
m641 -151 l25 -24 0 -781 0 -780 -325 0 -325 0 0 780 0 781 25 24 24 25 276 0
276 0 24 -25z"/>
<path d="M123 1164 c-20 -20 -24 -31 -19 -57 13 -67 12 -67 378 -67 380 0 387
1 388 78 0 19 -8 40 -20 52 -19 19 -33 20 -360 20 l-341 0 -26 -26z"/>
<path d="M2163 1059 c-48 -23 -89 -67 -110 -116 -10 -26 -13 -125 -13 -466 0
-428 0 -434 21 -453 20 -18 42 -19 451 -19 l430 0 24 29 25 28 -3 427 c-3 414
-4 427 -25 466 -27 51 -68 90 -115 109 -31 13 -89 16 -340 16 -288 0 -305 -1
-345 -21z m653 -150 c18 -20 19 -41 19 -388 l0 -366 -322 -3 -323 -2 0 370 c0
357 1 371 20 390 19 19 33 20 303 20 276 0 284 -1 303 -21z"/>
</g>
</svg>
