<?xml version="1.0" encoding="UTF-8"?>
<!DOCTYPE svg PUBLIC "-//W3C//DTD SVG 1.1//EN" "http://www.w3.org/Graphics/SVG/1.1/DTD/svg11.dtd">
<svg xmlns="http://www.w3.org/2000/svg" version="1.1" width="512px" height="512px" style="shape-rendering:geometricPrecision; text-rendering:geometricPrecision; image-rendering:optimizeQuality; fill-rule:evenodd; clip-rule:evenodd" xmlns:xlink="http://www.w3.org/1999/xlink">
<g><path style="opacity:0.959" fill="#3b92f8" d="M 132.5,14.5 C 249.5,14.3333 366.5,14.5 483.5,15C 493.376,16.5444 499.876,22.0444 503,31.5C 503.667,120.5 503.667,209.5 503,298.5C 500.167,306.667 494.667,312.167 486.5,315C 473.171,315.5 459.837,315.667 446.5,315.5C 446.667,339.502 446.5,363.502 446,387.5C 443.596,396.237 438.096,402.071 429.5,405C 419.172,405.5 408.839,405.666 398.5,405.5C 398.667,429.836 398.5,454.169 398,478.5C 395.28,488.553 388.78,494.387 378.5,496C 261.5,496.667 144.5,496.667 27.5,496C 17.6244,494.456 11.1244,488.956 8,479.5C 7.33333,390.5 7.33333,301.5 8,212.5C 10.3513,205.481 14.8513,200.314 21.5,197C 32.4225,195.569 43.4225,195.069 54.5,195.5C 54.3334,172.164 54.5,148.831 55,125.5C 56.5444,115.624 62.0444,109.124 71.5,106C 85.1626,105.5 98.8293,105.333 112.5,105.5C 112.333,81.1644 112.5,56.8311 113,32.5C 115.893,22.4353 122.393,16.4353 132.5,14.5 Z M 134.5,31.5 C 250.167,31.3333 365.834,31.5 481.5,32C 484.883,33.3804 486.716,35.8804 487,39.5C 487.5,50.8284 487.667,62.1618 487.5,73.5C 368.167,73.5 248.833,73.5 129.5,73.5C 129.333,60.8289 129.5,48.1623 130,35.5C 131.397,33.9297 132.897,32.5964 134.5,31.5 Z M 129.5,90.5 C 248.833,90.5 368.167,90.5 487.5,90.5C 487.667,157.501 487.5,224.501 487,291.5C 487.063,294.767 485.563,296.934 482.5,298C 470.505,298.5 458.505,298.667 446.5,298.5C 446.667,240.166 446.5,181.832 446,123.5C 443.596,114.763 438.096,108.929 429.5,106C 329.501,105.5 229.501,105.333 129.5,105.5C 129.5,100.5 129.5,95.5 129.5,90.5 Z M 78.5,121.5 C 193.167,121.333 307.834,121.5 422.5,122C 425.494,122.406 427.661,123.906 429,126.5C 429.5,139.162 429.667,151.829 429.5,164.5C 310.167,164.5 190.833,164.5 71.5,164.5C 71.3335,152.162 71.5001,139.829 72,127.5C 73.4361,124.558 75.6028,122.558 78.5,121.5 Z M 71.5,180.5 C 190.833,180.5 310.167,180.5 429.5,180.5C 429.667,248.501 429.5,316.501 429,384.5C 427.661,387.094 425.494,388.594 422.5,389C 414.507,389.5 406.507,389.666 398.5,389.5C 398.667,330.499 398.5,271.499 398,212.5C 395.167,204.333 389.667,198.833 381.5,196C 278.167,195.5 174.834,195.333 71.5,195.5C 71.5,190.5 71.5,185.5 71.5,180.5 Z M 28.5,212.5 C 144.834,212.333 261.167,212.5 377.5,213C 379.333,213.5 380.5,214.667 381,216.5C 381.5,229.162 381.667,241.829 381.5,254.5C 262.167,254.5 142.833,254.5 23.5,254.5C 23.0777,241.439 23.5777,228.439 25,215.5C 26.1451,214.364 27.3117,213.364 28.5,212.5 Z M 23.5,271.5 C 142.833,271.5 262.167,271.5 381.5,271.5C 381.667,339.501 381.5,407.501 381,475.5C 379.786,477.049 378.286,478.215 376.5,479C 260.833,479.667 145.167,479.667 29.5,479C 27.714,478.215 26.214,477.049 25,475.5C 23.5135,407.545 23.0135,339.545 23.5,271.5 Z M 198.5,336.5 C 232.54,336.358 260.207,349.358 281.5,375.5C 249.506,411.75 210.506,421.917 164.5,406C 149.025,399.183 135.859,389.35 125,376.5C 124.333,375.5 124.333,374.5 125,373.5C 144.668,351.416 169.168,339.083 198.5,336.5 Z M 200.5,360.5 C 215.704,362.58 220.204,370.58 214,384.5C 206.048,391.366 198.381,391.033 191,383.5C 186.436,372.63 189.602,364.963 200.5,360.5 Z"/></g>
<g><path style="opacity:0.882" fill="#3b92f8" d="M 166.5,43.5 C 177.16,42.3278 181.327,46.9945 179,57.5C 173.286,64.1541 167.619,64.1541 162,57.5C 159.773,51.623 161.273,46.9563 166.5,43.5 Z"/></g>
<g><path style="opacity:0.879" fill="#3b92f8" d="M 201.5,43.5 C 211.659,42.1581 215.826,46.4914 214,56.5C 209.754,63.0155 204.421,64.0155 198,59.5C 194.136,52.9799 195.303,47.6466 201.5,43.5 Z"/></g>
<g><path style="opacity:0.873" fill="#3b92f8" d="M 235.5,43.5 C 245.772,41.9394 250.272,46.2727 249,56.5C 244.112,63.543 238.445,64.2097 232,58.5C 229.343,52.586 230.51,47.586 235.5,43.5 Z"/></g>
<g><path style="opacity:0.876" fill="#3b92f8" d="M 109.5,133.5 C 118.987,132.819 123.154,137.153 122,146.5C 119.367,151.732 115.201,153.565 109.5,152C 104.268,149.367 102.435,145.201 104,139.5C 105.36,136.977 107.193,134.977 109.5,133.5 Z"/></g>
<g><path style="opacity:0.879" fill="#3b92f8" d="M 144.5,133.5 C 155.338,133.169 159.172,138.169 156,148.5C 152.95,152.13 149.117,153.297 144.5,152C 138.975,149.081 137.142,144.581 139,138.5C 140.73,136.598 142.563,134.931 144.5,133.5 Z"/></g>
<g><path style="opacity:0.876" fill="#3b92f8" d="M 179.5,133.5 C 188.447,132.615 192.614,136.615 192,145.5C 189.86,151.487 185.693,153.654 179.5,152C 173.828,149.232 171.994,144.732 174,138.5C 175.406,136.256 177.239,134.59 179.5,133.5 Z"/></g>
<g><path style="opacity:0.876" fill="#3b92f8" d="M 62.5,223.5 C 71.9703,223.474 75.8036,228.141 74,237.5C 71.1034,242.155 66.9367,243.655 61.5,242C 55.2411,238.044 54.0744,232.878 58,226.5C 59.6516,225.601 61.1516,224.601 62.5,223.5 Z"/></g>
<g><path style="opacity:0.879" fill="#3b92f8" d="M 97.5,223.5 C 106.498,223.329 110.331,227.662 109,236.5C 106.598,242.092 102.431,243.925 96.5,242C 90.5155,238.637 89.0155,233.803 92,227.5C 93.4998,225.531 95.3331,224.198 97.5,223.5 Z"/></g>
<g><path style="opacity:0.876" fill="#3b92f8" d="M 132.5,223.5 C 141.479,223.311 145.312,227.644 144,236.5C 141.081,242.025 136.581,243.858 130.5,242C 125.847,239.058 124.347,234.891 126,229.5C 127.436,226.558 129.603,224.558 132.5,223.5 Z"/></g>
<g><path style="opacity:0.912" fill="#3b92f8" d="M 201.5,276.5 C 204.892,276.717 207.725,278.051 210,280.5C 211.112,285.223 211.612,290.056 211.5,295C 211.612,299.944 211.112,304.777 210,309.5C 206.662,312.318 202.829,313.151 198.5,312C 196.951,310.786 195.785,309.286 195,307.5C 194.333,299.167 194.333,290.833 195,282.5C 196.436,279.558 198.603,277.558 201.5,276.5 Z"/></g>
<g><path style="opacity:0.897" fill="#3b92f8" d="M 154.5,284.5 C 157.939,284.589 160.772,285.922 163,288.5C 166.333,294.5 169.667,300.5 173,306.5C 174.715,315.118 171.215,318.951 162.5,318C 160.714,317.215 159.214,316.049 158,314.5C 154.415,308.998 151.081,303.331 148,297.5C 145.998,290.835 148.165,286.501 154.5,284.5 Z"/></g>
<g><path style="opacity:0.898" fill="#3b92f8" d="M 248.5,284.5 C 256.225,284.966 259.391,288.966 258,296.5C 254.461,303.75 250.294,310.583 245.5,317C 235.375,319.879 231.208,316.046 233,305.5C 236.585,299.998 239.919,294.331 243,288.5C 244.5,286.531 246.333,285.198 248.5,284.5 Z"/></g>
<g><path style="opacity:0.93" fill="#fff" d="M 199.5,319.5 C 240.286,319.645 273.119,335.645 298,367.5C 300.899,371.937 301.232,376.603 299,381.5C 269.713,419.213 231.213,435.047 183.5,429C 150.848,422.986 125.014,406.486 106,379.5C 105.163,375.705 105.496,372.039 107,368.5C 130.336,338.081 161.169,321.748 199.5,319.5 Z M 198.5,336.5 C 169.168,339.083 144.668,351.416 125,373.5C 124.333,374.5 124.333,375.5 125,376.5C 135.859,389.35 149.025,399.183 164.5,406C 210.506,421.917 249.506,411.75 281.5,375.5C 260.207,349.358 232.54,336.358 198.5,336.5 Z M 200.5,360.5 C 189.602,364.963 186.436,372.63 191,383.5C 198.381,391.033 206.048,391.366 214,384.5C 220.204,370.58 215.704,362.58 200.5,360.5 Z"/></g>
<g><path style="opacity:0.93" fill="#fff" d="M 199.5,343.5 C 225.368,345.262 236.535,358.929 233,384.5C 226.432,401.038 214.265,408.205 196.5,406C 178.247,400.672 170.08,388.505 172,369.5C 175.569,354.76 184.736,346.094 199.5,343.5 Z M 200.5,360.5 C 189.602,364.963 186.436,372.63 191,383.5C 198.381,391.033 206.048,391.366 214,384.5C 220.204,370.58 215.704,362.58 200.5,360.5 Z"/></g>
<g><path style="opacity:0.903" fill="#3b92f8" d="M 161.5,432.5 C 170.604,431.438 174.438,435.438 173,444.5C 169.919,450.331 166.585,455.998 163,461.5C 158,466.833 153,466.833 148,461.5C 147.333,458.833 147.333,456.167 148,453.5C 151.541,445.719 156.041,438.719 161.5,432.5 Z"/></g>
<g><path style="opacity:0.902" fill="#3b92f8" d="M 236.5,432.5 C 241.946,431.339 246.113,433.006 249,437.5C 252,442.833 255,448.167 258,453.5C 259.663,462.167 256.163,466 247.5,465C 245.061,464.226 243.227,462.726 242,460.5C 239,455.167 236,449.833 233,444.5C 231.593,439.643 232.76,435.643 236.5,432.5 Z"/></g>
<g><path style="opacity:0.902" fill="#3b92f8" d="M 200.5,437.5 C 205.46,437.06 208.96,439.06 211,443.5C 211.667,451.5 211.667,459.5 211,467.5C 210.015,471.666 207.348,473.666 203,473.5C 199.196,473.6 196.529,471.934 195,468.5C 194.333,459.833 194.333,451.167 195,442.5C 196.107,439.887 197.94,438.22 200.5,437.5 Z"/></g>
</svg>
