<?xml version="1.0" encoding="UTF-8"?>
<!DOCTYPE svg PUBLIC "-//W3C//DTD SVG 1.1//EN" "http://www.w3.org/Graphics/SVG/1.1/DTD/svg11.dtd">
<svg xmlns="http://www.w3.org/2000/svg" version="1.1" width="512px" height="512px" style="shape-rendering:geometricPrecision; text-rendering:geometricPrecision; image-rendering:optimizeQuality; fill-rule:evenodd; clip-rule:evenodd" xmlns:xlink="http://www.w3.org/1999/xlink">
<g><path style="opacity:0.968" fill="#3b92f8" d="M 187.5,-0.5 C 194.167,-0.5 200.833,-0.5 207.5,-0.5C 218.44,2.1416 227.773,7.6416 235.5,16C 242.294,20.1659 249.627,21.4993 257.5,20C 263.081,17.8762 268.414,15.2095 273.5,12C 291.86,6.76388 304.693,12.9305 312,30.5C 312.818,36.9017 312.484,43.235 311,49.5C 299.553,65.9473 287.72,82.114 275.5,98C 292.45,109.188 296.616,124.021 288,142.5C 284.726,147.774 280.226,151.608 274.5,154C 306.096,185.259 336.596,217.426 366,250.5C 371.211,258.419 376.045,266.586 380.5,275C 415.833,275.333 451.167,275.667 486.5,276C 488.333,277.167 489.833,278.667 491,280.5C 491.5,296.83 491.667,313.163 491.5,329.5C 496.511,329.334 501.511,329.501 506.5,330C 508.362,331.366 510.028,332.866 511.5,334.5C 511.5,355.833 511.5,377.167 511.5,398.5C 510.028,400.134 508.362,401.634 506.5,403C 501.511,403.499 496.511,403.666 491.5,403.5C 491.667,437.835 491.5,472.168 491,506.5C 489.634,508.362 488.134,510.028 486.5,511.5C 416.5,511.5 346.5,511.5 276.5,511.5C 274.866,510.028 273.366,508.362 272,506.5C 264.482,508.553 256.982,510.22 249.5,511.5C 215.167,511.5 180.833,511.5 146.5,511.5C 63.6259,496.959 14.6259,448.293 -0.5,365.5C -0.5,353.167 -0.5,340.833 -0.5,328.5C 2.10661,307.84 8.27328,288.174 18,269.5C 21.7434,265.741 26.2434,264.574 31.5,266C 36.1896,268.881 38.0229,273.048 37,278.5C 19.2748,313.398 15.6081,349.732 26,387.5C 46.0134,445.839 86.5134,480.006 147.5,490C 180.834,491.99 214.167,491.99 247.5,490C 255.617,489.036 263.617,487.536 271.5,485.5C 271.333,453.165 271.5,420.832 272,388.5C 273.167,386.667 274.667,385.167 276.5,384C 281.489,383.501 286.489,383.334 291.5,383.5C 291.5,372.167 291.5,360.833 291.5,349.5C 286.489,349.666 281.489,349.499 276.5,349C 274.667,347.833 273.167,346.333 272,344.5C 271.333,323.167 271.333,301.833 272,280.5C 273.167,278.667 274.667,277.167 276.5,276C 303.167,275.667 329.833,275.333 356.5,275C 350.386,265.886 343.886,257.052 337,248.5C 307.136,218.304 277.636,187.804 248.5,157C 214.833,156.333 181.167,156.333 147.5,157C 129.167,176 110.833,195 92.5,214C 87.7495,218.105 82.7495,218.438 77.5,215C 72.448,209.634 72.2813,204.134 77,198.5C 91.8626,183.971 106.363,169.138 120.5,154C 102.328,142.848 98.1614,127.682 108,108.5C 111.39,104.607 115.223,101.273 119.5,98.5C 107.806,82.6395 96.3062,66.6395 85,50.5C 78.8101,26.7078 87.8101,13.0411 112,9.5C 115.564,10.0793 119.064,10.9127 122.5,12C 127.269,15.1027 132.269,17.7694 137.5,20C 146.284,21.8084 154.284,20.1417 161.5,15C 168.851,7.49648 177.518,2.32982 187.5,-0.5 Z M 196.5,19.5 C 201.283,20.1318 205.949,21.2985 210.5,23C 216.167,27.3333 221.833,31.6667 227.5,36C 241.541,42.5108 255.875,43.1775 270.5,38C 275.061,35.2654 279.727,32.7654 284.5,30.5C 290.649,31.815 292.815,35.4817 291,41.5C 277.833,59.3333 264.667,77.1667 251.5,95C 215.495,95.8332 179.495,95.6666 143.5,94.5C 131.192,77.6919 118.692,61.0252 106,44.5C 101.976,37.8715 103.642,33.2048 111,30.5C 117.316,34.0749 123.816,37.2416 130.5,40C 151.267,44.7275 168.934,39.3942 183.5,24C 187.715,21.7632 192.048,20.2632 196.5,19.5 Z M 131.5,116.5 C 175.835,116.333 220.168,116.5 264.5,117C 270.943,120.056 272.776,124.889 270,131.5C 268.786,133.049 267.286,134.215 265.5,135C 220.5,135.667 175.5,135.667 130.5,135C 121.11,128.328 121.444,122.161 131.5,116.5 Z M 291.5,295.5 C 298.167,295.5 304.833,295.5 311.5,295.5C 311.344,306.835 316.677,310.668 327.5,307C 330.567,304.191 332.234,300.691 332.5,296.5C 338.798,295.504 345.132,295.17 351.5,295.5C 351.344,306.835 356.677,310.668 367.5,307C 370.567,304.191 372.234,300.691 372.5,296.5C 378.798,295.504 385.132,295.17 391.5,295.5C 391.344,306.835 396.677,310.668 407.5,307C 410.567,304.191 412.234,300.691 412.5,296.5C 418.798,295.504 425.132,295.17 431.5,295.5C 431.344,306.835 436.677,310.668 447.5,307C 450.567,304.191 452.234,300.691 452.5,296.5C 458.798,295.504 465.132,295.17 471.5,295.5C 471.5,306.833 471.5,318.167 471.5,329.5C 411.5,329.5 351.5,329.5 291.5,329.5C 291.5,318.167 291.5,306.833 291.5,295.5 Z M 311.5,349.5 C 318.167,349.5 324.833,349.5 331.5,349.5C 331.344,360.835 336.677,364.668 347.5,361C 350.567,358.191 352.234,354.691 352.5,350.5C 358.798,349.504 365.132,349.17 371.5,349.5C 371.344,360.835 376.677,364.668 387.5,361C 390.567,358.191 392.234,354.691 392.5,350.5C 398.798,349.504 405.132,349.17 411.5,349.5C 411.344,360.835 416.677,364.668 427.5,361C 430.567,358.191 432.234,354.691 432.5,350.5C 438.798,349.504 445.132,349.17 451.5,349.5C 451.344,360.835 456.677,364.668 467.5,361C 470.567,358.191 472.234,354.691 472.5,350.5C 478.798,349.504 485.132,349.17 491.5,349.5C 491.5,360.833 491.5,372.167 491.5,383.5C 431.5,383.5 371.5,383.5 311.5,383.5C 311.5,372.167 311.5,360.833 311.5,349.5 Z M 291.5,403.5 C 298.167,403.5 304.833,403.5 311.5,403.5C 311.344,414.835 316.677,418.668 327.5,415C 330.567,412.191 332.234,408.691 332.5,404.5C 338.798,403.504 345.132,403.17 351.5,403.5C 351.344,414.835 356.677,418.668 367.5,415C 370.567,412.191 372.234,408.691 372.5,404.5C 378.798,403.504 385.132,403.17 391.5,403.5C 391.344,414.835 396.677,418.668 407.5,415C 410.567,412.191 412.234,408.691 412.5,404.5C 418.798,403.504 425.132,403.17 431.5,403.5C 431.344,414.835 436.677,418.668 447.5,415C 450.567,412.191 452.234,408.691 452.5,404.5C 458.798,403.504 465.132,403.17 471.5,403.5C 471.5,414.833 471.5,426.167 471.5,437.5C 411.5,437.5 351.5,437.5 291.5,437.5C 291.5,426.167 291.5,414.833 291.5,403.5 Z M 291.5,457.5 C 298.167,457.5 304.833,457.5 311.5,457.5C 311.344,468.835 316.677,472.668 327.5,469C 330.567,466.191 332.234,462.691 332.5,458.5C 338.798,457.504 345.132,457.17 351.5,457.5C 351.344,468.835 356.677,472.668 367.5,469C 370.567,466.191 372.234,462.691 372.5,458.5C 378.798,457.504 385.132,457.17 391.5,457.5C 391.344,468.835 396.677,472.668 407.5,469C 410.567,466.191 412.234,462.691 412.5,458.5C 418.798,457.504 425.132,457.17 431.5,457.5C 431.344,468.835 436.677,472.668 447.5,469C 450.567,466.191 452.234,462.691 452.5,458.5C 458.798,457.504 465.132,457.17 471.5,457.5C 471.5,468.833 471.5,480.167 471.5,491.5C 411.5,491.5 351.5,491.5 291.5,491.5C 291.5,480.167 291.5,468.833 291.5,457.5 Z"/></g>
<g><path style="opacity:0.941" fill="#3b92f8" d="M 193.5,226.5 C 201.003,224.663 205.837,227.329 208,234.5C 208.498,237.482 208.665,240.482 208.5,243.5C 217.161,245.414 224.994,249.081 232,254.5C 237.39,264.343 234.723,270.343 224,272.5C 217.533,269.024 210.699,266.19 203.5,264C 184.495,261.826 172.829,269.993 168.5,288.5C 170.009,301.341 177.009,309.508 189.5,313C 208.776,312.085 224.943,318.585 238,332.5C 253.58,357.447 250.08,379.28 227.5,398C 221.583,401.628 215.25,404.128 208.5,405.5C 209.305,418.206 203.638,423.04 191.5,420C 190.667,419.167 189.833,418.333 189,417.5C 187.646,413.637 187.146,409.637 187.5,405.5C 179.832,404.333 172.832,401.5 166.5,397C 159.093,390.936 158.76,384.602 165.5,378C 167.199,377.042 169.033,376.542 171,376.5C 177.757,379.46 184.59,382.293 191.5,385C 206.667,387.333 217.834,381.833 225,368.5C 228.296,354.923 223.796,344.756 211.5,338C 200.895,335.738 190.228,333.738 179.5,332C 155.166,321.838 144.999,303.671 149,277.5C 155.442,258.889 168.276,247.556 187.5,243.5C 187.335,239.818 187.501,236.152 188,232.5C 189.36,229.977 191.193,227.977 193.5,226.5 Z"/></g>
<g><path style="opacity:0.887" fill="#3b92f8" d="M 49.5,228.5 C 62.1496,228.792 65.9829,234.792 61,246.5C 53.561,251.44 47.561,250.106 43,242.5C 41.8151,236.202 43.9817,231.535 49.5,228.5 Z"/></g>
</svg>
