<?xml version="1.0" encoding="UTF-8"?>
<!DOCTYPE svg PUBLIC "-//W3C//DTD SVG 1.1//EN" "http://www.w3.org/Graphics/SVG/1.1/DTD/svg11.dtd">
<svg xmlns="http://www.w3.org/2000/svg" version="1.1" width="512px" height="512px" style="shape-rendering:geometricPrecision; text-rendering:geometricPrecision; image-rendering:optimizeQuality; fill-rule:evenodd; clip-rule:evenodd" xmlns:xlink="http://www.w3.org/1999/xlink">
<g><path style="opacity:0.929" fill="#3b92f8" d="M 312.5,-0.5 C 315.833,-0.5 319.167,-0.5 322.5,-0.5C 340.137,16.9723 357.304,34.9723 374,53.5C 376.521,59.2305 375.354,64.0639 370.5,68C 364.593,69.3608 358.593,69.8608 352.5,69.5C 352.666,76.175 352.5,82.8417 352,89.5C 345.994,95.3301 340.994,94.6635 337,87.5C 336.074,77.0928 336.408,66.7595 338,56.5C 338.903,55.2986 340.069,54.4652 341.5,54C 344.833,53.6667 348.167,53.3333 351.5,53C 340.682,41.0153 329.349,29.5153 317.5,18.5C 306.375,30.1258 295.041,41.6258 283.5,53C 286.833,53.3333 290.167,53.6667 293.5,54C 295.667,54.8333 297.167,56.3333 298,58.5C 298.333,95.8333 298.667,133.167 299,170.5C 311.713,174.939 323.879,180.606 335.5,187.5C 336.333,164.507 336.833,141.507 337,118.5C 340.994,111.337 345.994,110.67 352,116.5C 352.167,139.174 352.667,161.841 353.5,184.5C 363.182,180.974 373.182,179.307 383.5,179.5C 383.5,165.833 383.5,152.167 383.5,138.5C 377.379,138.91 371.379,138.41 365.5,137C 360.768,131.965 360.268,126.465 364,120.5C 380.167,103.667 396.333,86.8333 412.5,70C 417.357,67.7896 422.024,68.123 426.5,71C 442.301,88.4686 458.467,105.635 475,122.5C 477.888,128.987 476.388,134.153 470.5,138C 465.177,138.499 459.844,138.666 454.5,138.5C 454.333,164.169 454.5,189.835 455,215.5C 463.192,226.904 468.359,239.57 470.5,253.5C 470.167,258.5 467.5,261.167 462.5,261.5C 459.889,261.444 457.722,260.444 456,258.5C 444.094,212.633 414.594,192.133 367.5,197C 339.539,204.293 321.373,221.793 313,249.5C 306.521,280.398 315.354,305.898 339.5,326C 370.572,346.132 400.906,345.132 430.5,323C 442.025,312.455 449.859,299.621 454,284.5C 460.911,278.344 466.078,279.51 469.5,288C 462.069,317.763 444.236,338.596 416,350.5C 406.857,411.678 375.023,456.512 320.5,485C 274.5,505.613 228,506.78 181,488.5C 167.522,500.323 152.022,507.989 134.5,511.5C 125.5,511.5 116.5,511.5 107.5,511.5C 72.9982,504.169 49.8315,483.836 38,450.5C 28.2373,407.765 41.5706,374.432 78,350.5C 73.5889,276.813 102.756,220.979 165.5,183C 202.409,163.653 241.242,158.153 282,166.5C 282.5,134.168 282.667,101.835 282.5,69.5C 277.489,69.6659 272.489,69.4993 267.5,69C 260.947,66.2701 258.78,61.4368 261,54.5C 278.005,35.9956 295.172,17.6623 312.5,-0.5 Z M 417.5,87.5 C 418.239,87.369 418.906,87.5357 419.5,88C 430.73,99.141 441.73,110.474 452.5,122C 447.257,121.564 442.757,123.064 439,126.5C 438.667,150.5 438.333,174.5 438,198.5C 426.764,189.549 414.097,183.549 400,180.5C 399.667,162.833 399.333,145.167 399,127.5C 398.535,126.069 397.701,124.903 396.5,124C 392.916,122.927 389.25,122.26 385.5,122C 396.372,110.63 407.039,99.1301 417.5,87.5 Z M 235.5,178.5 C 236.5,178.5 237.5,178.5 238.5,178.5C 238.013,231.226 238.513,283.893 240,336.5C 276.708,372.709 313.541,408.709 350.5,444.5C 313.107,478.014 269.44,490.847 219.5,483C 209.891,481.265 200.558,478.598 191.5,475C 197.858,466.45 202.191,456.95 204.5,446.5C 203.592,440.041 199.926,437.541 193.5,439C 192.069,439.465 190.903,440.299 190,441.5C 179.109,475.103 156.109,493.436 121,496.5C 88.5387,494.042 66.2054,477.708 54,447.5C 44.838,407.327 58.6713,378.161 95.5,360C 131.944,348.924 160.778,359.091 182,390.5C 186.188,398.398 189.188,406.732 191,415.5C 195.745,420.743 200.412,420.743 205,415.5C 205.141,402.914 201.808,391.247 195,380.5C 170.214,344.956 136.714,332.623 94.5,343.5C 91.5459,281.237 116.213,233.404 168.5,200C 189.505,188.274 211.839,181.108 235.5,178.5 Z M 254.5,178.5 C 279.717,180.018 303.051,187.351 324.5,200.5C 292.885,232.617 286.385,269.284 305,310.5C 326.354,345.424 357.52,360.424 398.5,355.5C 393.827,384.842 381.66,410.508 362,432.5C 326.029,398.196 290.362,363.53 255,328.5C 254.5,278.501 254.333,228.501 254.5,178.5 Z M 354.5,234.5 C 359.494,234.329 361.328,236.662 360,241.5C 357.667,244.167 355.333,244.167 353,241.5C 352.167,238.829 352.667,236.496 354.5,234.5 Z M 408.5,292.5 C 414.023,293.311 415.356,295.977 412.5,300.5C 408.881,302.351 406.548,301.351 405.5,297.5C 405.757,295.308 406.757,293.641 408.5,292.5 Z"/></g>
<g><path style="opacity:0.923" fill="#3b92f8" d="M 236.5,126.5 C 241.628,126.112 246.628,126.612 251.5,128C 255.122,132.002 255.456,136.335 252.5,141C 179.598,143.352 123.431,174.852 84,235.5C 66.2693,266.419 57.2693,299.752 57,335.5C 51.5157,342.255 46.5157,341.922 42,334.5C 44.0283,248.234 83.195,185.4 159.5,146C 184.14,134.924 209.807,128.424 236.5,126.5 Z"/></g>
<g><path style="opacity:0.929" fill="#3b92f8" d="M 350.5,218.5 C 369.503,217.668 378.003,226.668 376,245.5C 369.707,258.157 359.873,261.99 346.5,257C 336.528,249.952 333.695,240.785 338,229.5C 341.124,224.536 345.291,220.87 350.5,218.5 Z M 354.5,234.5 C 352.667,236.496 352.167,238.829 353,241.5C 355.333,244.167 357.667,244.167 360,241.5C 361.328,236.662 359.494,234.329 354.5,234.5 Z"/></g>
<g><path style="opacity:0.914" fill="#3b92f8" d="M 399.5,218.5 C 409.031,217.52 412.531,221.52 410,230.5C 397,257.833 384,285.167 371,312.5C 366.408,318.679 361.408,319.012 356,313.5C 355.333,310.833 355.333,308.167 356,305.5C 369.667,277.167 383.333,248.833 397,220.5C 397.995,219.934 398.828,219.267 399.5,218.5 Z"/></g>
<g><path style="opacity:0.925" fill="#3b92f8" d="M 405.5,276.5 C 420.022,275.86 428.355,282.693 430.5,297C 427.735,313.754 418.068,320.087 401.5,316C 389.738,309.044 386.571,299.211 392,286.5C 395.404,281.561 399.904,278.228 405.5,276.5 Z M 408.5,292.5 C 406.757,293.641 405.757,295.308 405.5,297.5C 406.548,301.351 408.881,302.351 412.5,300.5C 415.356,295.977 414.023,293.311 408.5,292.5 Z"/></g>
<g><path style="opacity:0.93" fill="#3b92f8" d="M 118.5,369.5 C 122.426,369.047 125.592,370.38 128,373.5C 128.499,377.486 128.666,381.486 128.5,385.5C 134.925,385.13 141.258,385.63 147.5,387C 152.779,392.059 152.446,396.726 146.5,401C 134.5,401.333 122.5,401.667 110.5,402C 102.9,406.579 102.567,411.579 109.5,417C 117.833,417.333 126.167,417.667 134.5,418C 150.385,423.263 156.218,434.096 152,450.5C 147.461,460.52 139.628,465.52 128.5,465.5C 128.666,469.514 128.499,473.514 128,477.5C 124.339,481.976 120.006,482.643 115,479.5C 112.896,475.078 112.063,470.412 112.5,465.5C 107.156,465.666 101.823,465.499 96.5,465C 89.9604,461.509 88.9604,456.842 93.5,451C 106.072,449.705 118.738,449.038 131.5,449C 137.636,446.326 138.97,442.16 135.5,436.5C 134.335,435.416 133.002,434.583 131.5,434C 122.092,433.918 112.759,433.251 103.5,432C 91.281,426.384 86.4477,416.884 89,403.5C 92.8709,392.476 100.704,386.476 112.5,385.5C 112.234,381.395 112.734,377.395 114,373.5C 115.25,371.807 116.75,370.473 118.5,369.5 Z"/></g>
</svg>
