<svg xmlns="http://www.w3.org/2000/svg" width="512" height="512" viewBox="0 0 512 512" version="1.1"><path d="" stroke="none" fill="#080404" fill-rule="evenodd"/><path d="M 335.844 1.337 C 321.032 6.859, 312.951 17.222, 310.775 33.487 L 309.671 41.739 304.085 39.141 C 299.461 36.990, 297.037 36.541, 290 36.533 C 282.524 36.523, 280.693 36.903, 274.799 39.685 C 266.586 43.563, 260.278 49.696, 256.419 57.554 L 253.500 63.500 253.175 89.250 C 252.997 103.412, 252.641 115, 252.385 115 C 252.130 115, 250.119 114.081, 247.918 112.958 C 237.958 107.877, 225.838 108.344, 214.732 114.237 C 208.024 117.797, 203.197 122.789, 199.285 130.214 L 196.500 135.500 196.221 197.113 L 195.942 258.725 187.579 255.915 C 173.894 251.316, 163.123 249.661, 147 249.680 C 130.400 249.699, 118.564 251.511, 104.678 256.158 C 89.517 261.233, 72.511 270.525, 70.971 274.576 C 69.667 278.006, 71.675 282.781, 75.186 284.596 C 78.516 286.318, 77.157 286.813, 94 277.752 C 119.986 263.772, 153.315 261.256, 182.139 271.098 C 199.552 277.044, 215.821 287.131, 228.649 299.935 C 258.374 329.605, 268.708 369.923, 257.408 412.145 C 246.946 451.240, 217.390 481.173, 179.144 491.409 C 148.686 499.560, 117.985 496.434, 91.029 482.437 C 52.366 462.362, 29.336 420.796, 31.279 374.597 C 32.207 352.517, 38.807 333.028, 51.478 314.945 C 57.633 306.161, 58.381 302.591, 54.750 299.323 C 49.275 294.395, 46.021 295.530, 39.185 304.750 C 19.976 330.662, 11.193 367.004, 16.396 399.051 C 25.749 456.667, 68.283 500.843, 123.710 510.509 C 134.895 512.459, 157.255 512.432, 168.619 510.454 C 192.729 506.258, 215.512 495.112, 234.900 478.028 L 242.558 471.279 246.529 474.776 C 265.767 491.718, 289.492 503.454, 316 509.141 C 331.102 512.380, 361.781 512.414, 376.604 509.207 C 402.700 503.562, 424.217 493.241, 443.180 477.272 C 453.306 468.746, 454.258 466.104, 449.077 460.923 C 444.730 456.576, 442.352 457.121, 433.978 464.386 C 414.890 480.944, 390.810 491.555, 364.325 495.080 C 353.166 496.565, 328.106 495.705, 318 493.490 C 300.836 489.729, 282.969 482.078, 269.846 472.870 C 262.549 467.750, 253 459.562, 253 458.425 C 253 458.131, 254.739 455.327, 256.864 452.195 C 270.534 432.049, 277.401 408.589, 277.413 382 C 277.426 352.674, 269.293 326.657, 252.943 303.721 C 245.154 292.796, 229.773 277.910, 219.639 271.490 L 211.958 266.624 212.229 202.488 L 212.500 138.353 215.251 134.196 C 221.851 124.224, 236.607 122.326, 245.670 130.284 C 253.198 136.893, 252.953 134.604, 252.978 198.795 L 253 256.091 255.455 258.545 C 258.702 261.793, 263.298 261.793, 266.545 258.545 L 269 256.091 269.022 162.295 C 269.043 73.733, 269.146 68.276, 270.865 64.491 C 277.505 49.876, 297.295 47.895, 306.500 60.924 L 309.500 65.170 310 144.481 C 310.480 220.689, 310.575 223.874, 312.405 225.896 C 314.950 228.708, 321.236 228.764, 324 226 C 325.972 224.028, 326 222.663, 326.006 129.250 C 326.009 68.861, 326.376 33.188, 327.016 30.882 C 329.699 21.225, 336.686 16.033, 347 16.033 C 357.314 16.033, 364.301 21.225, 366.984 30.882 C 367.624 33.188, 367.991 68.861, 367.994 129.250 C 368 222.663, 368.028 224.028, 370 226 C 372.764 228.764, 379.050 228.708, 381.595 225.896 C 383.425 223.874, 383.520 220.689, 384 144.481 L 384.500 65.171 387.500 60.924 C 396.631 48.001, 415.680 49.652, 423.001 64.001 C 424.966 67.855, 425 69.906, 425 186.331 L 425 304.742 420.250 305.393 C 407.377 307.157, 391.479 315.665, 381.354 326.210 C 369.603 338.447, 363.057 352.119, 360.902 368.925 C 359.873 376.951, 359.931 378.246, 361.425 380.525 C 363.929 384.348, 367.248 385.554, 370.993 384.003 C 374.972 382.355, 375.593 380.999, 376.367 372.285 C 378.062 353.196, 389.889 335.434, 406.743 326.666 C 414.229 322.772, 424.430 320.048, 431.639 320.017 C 434.202 320.007, 436.677 319.272, 438.139 318.089 L 440.500 316.178 441 258.174 L 441.500 200.170 444.500 195.912 C 453.489 183.152, 472.006 184.383, 479.097 198.210 C 480.924 201.772, 481 205.345, 480.996 287.710 C 480.992 380.430, 480.940 381.498, 475.498 400.530 C 474.087 405.463, 469.993 415.522, 466.400 422.882 C 460.371 435.230, 459.960 436.488, 461.070 439.170 C 463.426 444.856, 470.274 445.840, 474.288 441.069 C 480.523 433.660, 490.314 409.430, 494.244 391.688 C 496.495 381.521, 496.500 381.308, 496.500 289.500 L 496.500 197.500 494.306 192.749 C 491.018 185.629, 483.030 177.744, 475.722 174.405 C 470.449 171.995, 468.203 171.560, 461 171.552 C 453.890 171.545, 451.566 171.977, 446.789 174.199 L 441.078 176.854 440.789 120.177 L 440.500 63.500 437.830 57.804 C 434.284 50.240, 427.424 43.568, 419.201 39.685 C 413.307 36.903, 411.476 36.523, 404 36.533 C 396.968 36.541, 394.538 36.991, 389.928 39.135 L 384.356 41.726 383.338 33.510 C 381.624 19.673, 375.312 10.120, 363.821 3.972 C 358.205 0.968, 356.496 0.556, 348.500 0.282 C 342.641 0.081, 338.224 0.449, 335.844 1.337 M 132.500 279.032 C 117.388 281.361, 98.197 289.535, 85.798 298.921 C 76.741 305.777, 64.795 318.875, 58.981 328.323 C 48.315 345.655, 43.516 363.819, 44.272 384 C 44.959 402.363, 49.232 416.820, 58.894 433.476 C 63.610 441.605, 66.186 444, 70.214 444 C 73.256 444, 78.961 438.557, 141.760 375.733 C 217.213 300.250, 213.330 304.876, 206.580 298.511 C 202.685 294.837, 187.708 286.833, 179.211 283.883 C 165.573 279.148, 145.360 277.049, 132.500 279.032 M 131.500 295.434 C 98.034 302.087, 71.361 326.996, 62.288 360.066 C 60.973 364.857, 60.526 370.204, 60.537 381 C 60.553 397.324, 61.743 403.139, 67.759 416.302 L 71.346 424.148 130.173 365.327 C 162.528 332.976, 189 306.234, 189 305.901 C 189 304.809, 175.657 299.156, 168 297.004 C 158.264 294.269, 141.081 293.529, 131.500 295.434 M 218.500 318.901 C 216.850 319.942, 185.688 350.661, 149.250 387.165 C 79.333 457.209, 80.976 455.350, 83.996 460.992 C 85.332 463.489, 97.817 471.170, 106.616 474.909 C 121.901 481.404, 127.806 482.506, 147 482.443 C 163.172 482.390, 165.183 482.176, 173.500 479.627 C 212.032 467.817, 240.085 436.773, 247.488 397.750 C 251.776 375.145, 246.394 348.135, 233.469 327.398 C 226.882 316.830, 224.197 315.306, 218.500 318.901 M 162.693 396.807 C 130.412 429.091, 104 455.800, 104 456.160 C 104 457.239, 118.604 462.977, 126.825 465.129 C 137.659 467.964, 155.559 467.936, 166.500 465.067 C 190.166 458.859, 210.443 443.127, 222.451 421.655 C 234.666 399.811, 236.331 372.784, 226.915 349.162 C 225.306 345.126, 223.404 340.987, 222.688 339.965 C 221.499 338.268, 216.303 343.191, 162.693 396.807" stroke="none" fill="#3b92f8" fill-rule="evenodd"/></svg>