<svg xmlns="http://www.w3.org/2000/svg" width="512" height="512" viewBox="0 0 512 512" version="1.1"><path d="" stroke="none" fill="#080404" fill-rule="evenodd"/><path d="M 294.455 46.455 L 292 48.909 292 147.899 L 292 246.888 294.250 249.469 C 296.137 251.634, 311.218 256.801, 387.807 281.525 C 438.026 297.736, 479.928 311, 480.922 311 C 481.917 311, 483.875 310.099, 485.275 308.999 C 487.359 307.359, 488.367 304.695, 490.852 294.249 C 495.753 273.645, 496.480 267.147, 496.416 244.500 C 496.352 222.100, 495.240 212.707, 490.386 193.543 C 476.112 137.196, 435.539 87.607, 383.500 62.908 C 358.918 51.241, 328.819 44, 304.903 44 C 297.749 44, 296.651 44.258, 294.455 46.455 M 308.245 149.711 L 308.500 239.422 323 244.159 C 330.975 246.764, 338.063 248.919, 338.750 248.948 C 339.741 248.989, 340 229.875, 340 156.571 L 340 64.142 334.750 63.093 C 325.372 61.219, 316.592 60.015, 312.245 60.008 L 307.989 60 308.245 149.711 M 253.175 67.076 C 202.787 71.941, 154.295 97.234, 122.342 135.317 C 115.061 143.995, 101 164.224, 101 166.021 C 101 166.477, 96.163 166.871, 90.250 166.897 C 69.863 166.984, 52.390 174.059, 38.129 188 C 22.842 202.944, 15.049 221.327, 15.024 242.500 C 15.007 257.974, 19.351 272.034, 28.207 285.158 C 32.580 291.639, 32.643 291.842, 30.572 292.785 C 26.263 294.749, 21.652 299.553, 19.367 304.459 C 17.480 308.512, 17.018 311.188, 17.010 318.110 C 17.001 325.825, 17.328 327.356, 20.163 332.851 C 23.103 338.553, 23.211 339.109, 21.701 340.778 C 15.220 347.939, 15.220 369.061, 21.701 376.222 C 23.211 377.891, 23.103 378.447, 20.163 384.149 C 17.309 389.681, 17 391.151, 17 399.173 C 17 408.220, 18.392 413.566, 21.701 417.222 C 23.211 418.891, 23.103 419.447, 20.163 425.149 C 17.388 430.529, 17 432.261, 17 439.274 C 17 443.671, 17.547 449.120, 18.216 451.384 C 19.839 456.877, 28.123 465.161, 33.616 466.784 C 36.626 467.673, 52.326 468, 92.050 468 C 144.839 468, 146.488 467.942, 150.621 465.942 C 155.534 463.563, 161.569 457.275, 163.597 452.422 C 164.369 450.575, 165 446.350, 165 443.032 C 165 439.714, 165.188 437, 165.417 437 C 165.647 437, 169.359 439.091, 173.667 441.647 C 215.129 466.243, 267.287 474.162, 314.636 463.049 C 336.737 457.862, 361.584 447.159, 379.701 435.024 C 402.858 419.512, 424.191 397.361, 438.018 374.470 C 447.887 358.132, 459 331.932, 459 325.004 C 459 319.027, 468.046 322.400, 350.259 284.452 L 279.018 261.500 279.009 167.297 C 279.003 100.405, 278.678 72.388, 277.890 70.657 C 275.754 65.971, 271.305 65.326, 253.175 67.076 M 356 161.883 L 356 254.766 370.518 259.421 C 378.502 261.981, 385.705 264.333, 386.523 264.647 C 387.834 265.150, 387.980 254.404, 387.755 173.978 L 387.500 82.739 382.323 79.814 C 377.115 76.872, 358.620 69, 356.915 69 C 356.368 69, 356 106.382, 356 161.883 M 245.527 83.588 C 194.181 91.566, 150.049 119.786, 120.982 163.226 L 116.226 170.334 124.863 174.653 C 143.737 184.092, 156.450 198.788, 163.659 219.500 C 166.226 226.874, 166.444 228.674, 166.444 242.500 C 166.444 256.326, 166.226 258.126, 163.659 265.500 C 160.626 274.216, 156.334 282.464, 151.898 288.104 L 149.063 291.708 151.309 292.731 C 155.732 294.746, 160.325 299.503, 162.633 304.459 C 164.519 308.509, 164.982 311.189, 164.990 318.090 C 164.999 325.710, 164.649 327.383, 161.895 332.895 C 159.053 338.582, 158.922 339.257, 160.356 340.841 C 163.612 344.439, 165 349.827, 165 358.866 C 165 366.854, 164.683 368.399, 162.002 373.497 C 159.054 379.101, 159.034 379.241, 160.801 381.848 C 163.850 386.348, 165.085 390.082, 165.619 396.413 C 166.077 401.843, 165.695 404.299, 162.899 413.864 C 162.320 415.844, 178.481 426.834, 191.674 433.431 C 233.396 454.293, 282.208 457.912, 326.834 443.451 C 340.831 438.916, 363.124 427.710, 374.966 419.257 C 386.684 410.892, 404.122 394.244, 412.826 383.110 C 421.225 372.366, 430.537 356.850, 435.760 344.895 C 442.263 330.009, 442.295 330.585, 434.831 328.159 C 431.349 327.028, 393.400 314.779, 350.500 300.940 C 307.600 287.102, 270.874 275.129, 268.886 274.335 C 266.898 273.541, 264.760 271.770, 264.136 270.399 C 263.314 268.595, 263 242.201, 263 174.953 L 263 82 258.750 82.097 C 256.413 82.150, 250.462 82.821, 245.527 83.588 M 403 181.417 L 403 269.834 418.251 274.917 C 426.639 277.713, 433.839 280, 434.251 280 C 434.663 280, 435 244.227, 435 200.505 L 435 121.010 426.750 112.713 C 418.960 104.878, 405.035 93, 403.639 93 C 403.288 93, 403 132.788, 403 181.417 M 451.031 214.081 L 451 285.661 462.701 289.330 C 469.136 291.348, 474.704 292.661, 475.074 292.249 C 475.444 291.837, 476.471 287.816, 477.357 283.313 C 480.426 267.705, 481.289 255.998, 480.695 238.029 C 480.039 218.170, 477.358 202.878, 471.399 185 C 467.963 174.689, 458.568 154.381, 453.589 146.500 L 451.062 142.500 451.031 214.081 M 78.727 183.468 C 56.870 188.031, 37.592 206.660, 32.537 228.103 C 27.569 249.183, 33.486 269.615, 49.059 285.146 C 67.764 303.802, 94.007 308.073, 118 296.366 C 123.665 293.602, 127.460 290.724, 133.511 284.603 C 145.856 272.117, 151 259.787, 151 242.684 C 151 226.438, 145.847 213.305, 134.882 201.606 C 127.327 193.545, 120.312 188.951, 110.170 185.424 C 101.250 182.322, 88.128 181.506, 78.727 183.468 M 86 192.293 C 86 196.547, 85.959 196.596, 81.416 197.811 C 74.982 199.532, 66.928 207.690, 64.527 214.919 C 61.146 225.098, 63.925 234.989, 72.348 242.753 C 77.817 247.795, 82.524 249.876, 90.287 250.688 C 97.352 251.426, 101.829 254.159, 104.330 259.257 C 105.839 262.335, 105.966 263.573, 105.056 266.329 C 102.685 273.513, 95.278 277.514, 87.112 276.020 C 81.356 274.968, 78.099 272.477, 75.860 267.416 L 73.906 263 66.453 263 C 59.322 263, 59 263.100, 59 265.322 C 59 276.039, 70.629 288.836, 82.750 291.456 C 85.328 292.014, 86 292.659, 86 294.579 C 86 296.925, 86.232 297, 93.500 297 L 101 297 101 293.652 C 101 290.717, 101.490 290.083, 104.973 288.512 C 113.883 284.494, 120.972 273.835, 120.990 264.428 C 121.004 257.359, 118.552 250.908, 113.798 245.508 C 108.574 239.574, 102.215 236.410, 92.937 235.130 C 86.313 234.216, 85.145 233.717, 82.250 230.566 C 78.626 226.622, 78.061 222.716, 80.449 218.099 C 82.749 213.652, 86.743 211.594, 93.174 211.544 C 100.713 211.485, 105.076 214.770, 107.395 222.250 C 107.850 223.717, 109.176 224, 115.605 224 L 123.272 224 122.655 219.497 C 122.315 217.020, 121.148 213.250, 120.060 211.119 C 117.484 206.069, 109.735 199.300, 104.856 197.839 C 101.151 196.729, 101 196.514, 101 192.342 L 101 188 93.500 188 L 86 188 86 192.293 M 38.500 305.945 C 32.841 308.262, 30.183 317.586, 33.406 323.817 C 36.701 330.190, 35.621 330.081, 92.479 329.776 L 143.956 329.500 146.728 326.727 C 149.185 324.270, 149.500 323.220, 149.500 317.500 C 149.500 311.862, 149.167 310.712, 146.868 308.413 C 145.074 306.619, 142.803 305.619, 139.738 305.274 C 135.898 304.841, 134.292 305.298, 128.742 308.402 C 105.059 321.646, 77.018 321.689, 53.467 308.518 C 47.197 305.012, 42.678 304.235, 38.500 305.945 M 35.887 348.809 C 31.915 352.358, 30.796 359.771, 33.455 364.913 C 36.591 370.978, 36.802 371, 91.218 370.998 C 136.139 370.997, 140.809 370.842, 143.986 369.248 C 148.669 366.900, 150.171 363.700, 149.696 357.082 C 149.368 352.512, 148.812 351.221, 146.138 348.832 L 142.968 346 91 346 L 39.032 346 35.887 348.809 M 36.301 388.772 C 31.998 392.154, 30.677 400.540, 33.566 406.128 C 36.574 411.944, 37.128 412, 91.218 411.998 C 136.139 411.997, 140.809 411.842, 143.986 410.248 C 145.903 409.287, 148.034 407.375, 148.721 406 C 151.521 400.396, 149.482 390.399, 145.055 388.030 C 143.805 387.360, 124.827 387.008, 90.816 387.022 C 42.783 387.043, 38.320 387.186, 36.301 388.772 M 39.212 428.129 C 29.280 430.993, 29.650 449.143, 39.698 451.933 C 42.124 452.607, 60.978 452.991, 91.782 452.994 C 131.257 452.999, 140.685 452.741, 143.466 451.579 C 152.868 447.650, 152.032 430.769, 142.302 428.067 C 137.468 426.724, 43.887 426.780, 39.212 428.129" stroke="none" fill="#3b92f8" fill-rule="evenodd"/></svg>