<?xml version="1.0" standalone="no"?>
<!DOCTYPE svg PUBLIC "-//W3C//DTD SVG 20010904//EN"
 "http://www.w3.org/TR/2001/REC-SVG-20010904/DTD/svg10.dtd">
<svg version="1.0" xmlns="http://www.w3.org/2000/svg"
 width="512.000000pt" height="512.000000pt" viewBox="0 0 512.000000 512.000000"
 preserveAspectRatio="xMidYMid meet">

<g transform="translate(0.000000,512.000000) scale(0.100000,-0.100000)"
fill="#3b92f8" stroke="none">
<path d="M2380 4954 c-241 -27 -382 -56 -555 -111 -202 -65 -424 -171 -580
-276 -71 -48 -84 -63 -85 -98 0 -24 246 -426 293 -476 33 -37 72 -29 167 33
172 113 391 202 605 244 139 28 402 38 542 20 875 -108 1532 -848 1533 -1725
0 -164 -12 -267 -51 -425 -26 -102 -71 -241 -85 -259 -2 -2 -27 13 -56 33 -62
42 -90 45 -122 13 -22 -22 -23 -30 -29 -267 -12 -408 -9 -597 8 -629 15 -30
33 -41 66 -41 31 0 791 220 816 236 26 16 38 53 29 88 -3 14 -37 47 -83 81
-43 32 -81 61 -86 65 -4 3 13 52 38 109 92 206 158 435 190 652 9 57 19 193
22 302 l6 197 -80 0 -80 0 -6 -197 c-10 -359 -88 -676 -238 -975 -57 -113 -54
-134 30 -200 l34 -26 -69 -20 c-198 -59 -424 -122 -433 -122 -12 0 -15 278 -5
428 l7 90 34 -16 c24 -12 40 -13 61 -6 55 19 155 268 209 519 25 121 27 146
27 365 0 219 -2 244 -27 365 -38 177 -86 316 -162 470 -108 219 -217 367 -402
545 -134 130 -260 220 -425 305 -271 140 -509 202 -813 212 -258 8 -439 -17
-674 -96 -111 -37 -297 -123 -382 -177 l-39 -24 -23 37 c-13 21 -54 85 -91
143 l-66 104 37 24 c260 159 558 266 878 314 133 19 472 17 614 -5 830 -129
1494 -669 1785 -1450 36 -96 96 -315 96 -349 0 -27 17 -30 90 -17 52 9 70 16
70 28 -1 34 -40 192 -75 301 -170 526 -501 964 -955 1265 -305 202 -615 322
-987 380 -93 15 -448 28 -523 19z"/>
<path d="M668 4017 c-234 -68 -395 -120 -407 -131 -21 -19 -27 -59 -15 -91 5
-11 131 -115 171 -140 1 -1 -22 -57 -52 -126 -30 -68 -55 -128 -55 -134 0 -5
33 -22 74 -36 l73 -26 33 81 c18 44 50 116 71 158 58 116 56 130 -41 207 -20
15 -22 21 -10 25 28 10 475 136 482 136 5 0 8 -117 8 -260 l0 -261 -30 16
c-62 32 -95 13 -140 -82 -75 -159 -137 -387 -161 -587 -14 -122 -6 -410 14
-521 37 -199 94 -368 179 -539 55 -109 126 -226 137 -226 4 0 35 19 69 43 l61
44 -33 49 c-134 203 -237 488 -267 744 -16 145 -7 395 21 535 19 95 89 327
103 342 3 2 29 -12 57 -31 57 -39 70 -42 103 -24 47 24 46 20 47 474 l0 431
-23 21 c-14 13 -36 22 -53 21 -16 0 -203 -51 -416 -112z"/>
<path d="M1945 4055 c-14 -13 -25 -36 -25 -50 0 -15 46 -105 109 -212 l110
-186 -107 -53 c-333 -164 -556 -450 -649 -831 -14 -58 -17 -152 -20 -658 l-4
-590 -88 -90 c-48 -49 -95 -101 -104 -114 l-16 -24 -137 63 c-214 98 -258 107
-377 70 -84 -26 -164 -96 -204 -178 -24 -50 -28 -69 -28 -147 0 -78 4 -98 29
-152 52 -113 72 -126 614 -397 530 -265 576 -286 697 -318 77 -21 104 -22 728
-25 l647 -4 0 80 0 80 -637 3 c-619 4 -640 4 -718 25 -57 16 -233 99 -615 290
l-535 268 -27 54 c-33 64 -36 118 -9 177 32 69 107 111 182 101 21 -3 251
-102 510 -221 l472 -216 448 0 449 0 0 80 0 79 -389 3 c-376 3 -391 4 -417 24
-53 39 -69 71 -69 134 0 63 16 95 69 134 26 20 44 21 379 26 l352 5 88 43
c269 132 645 134 900 6 l47 -24 0 -495 0 -495 -160 0 -160 0 0 -80 0 -80 695
0 696 0 24 25 25 24 0 376 0 375 -80 0 -80 0 0 -320 0 -320 -400 0 -400 0 0
480 0 480 40 0 40 0 0 80 0 80 -69 0 c-58 0 -80 6 -152 39 -316 147 -697 148
-1014 3 l-80 -36 -345 -6 -345 -5 -63 -34 c-66 -36 -104 -76 -143 -151 -18
-36 -23 -62 -23 -127 -1 -46 -2 -83 -2 -83 -3 0 -289 132 -297 137 -5 3 41 56
102 118 l111 112 0 574 c0 618 4 680 53 824 28 82 87 202 131 265 46 67 183
207 251 255 73 53 197 115 288 144 71 24 97 48 97 91 -1 14 -45 99 -99 190
l-99 165 209 3 c115 1 303 1 418 0 l209 -3 -99 -165 c-54 -91 -98 -176 -99
-190 0 -43 26 -67 97 -91 168 -54 304 -141 428 -270 156 -163 242 -334 280
-553 12 -71 15 -184 15 -567 l0 -479 81 0 80 0 -4 528 c-3 446 -6 537 -20 595
-93 381 -316 667 -649 831 l-107 53 110 186 c63 107 109 197 109 212 0 14 -11
37 -25 50 l-24 25 -591 0 -591 0 -24 -25z"/>
<path d="M2103 3230 c-35 -22 -63 -43 -63 -48 0 -7 68 -103 84 -120 4 -3 85
42 115 65 6 4 -61 143 -68 143 -3 0 -34 -18 -68 -40z"/>
<path d="M221 3093 c-44 -188 -55 -298 -55 -533 -1 -297 31 -499 116 -754 33
-100 115 -296 129 -311 10 -10 139 48 139 63 0 5 -18 51 -41 103 -135 309
-199 644 -186 979 6 149 31 337 60 448 8 29 11 54 8 56 -9 6 -127 36 -139 36
-6 0 -20 -39 -31 -87z"/>
<path d="M2480 3041 l0 -79 -47 -7 c-103 -15 -196 -84 -243 -180 -20 -41 -24
-65 -24 -135 0 -93 17 -143 73 -211 37 -44 131 -95 194 -104 l47 -7 0 -160 0
-160 -32 6 c-52 10 -101 56 -118 109 l-15 47 -79 0 -78 0 7 -47 c8 -60 59
-156 98 -189 45 -38 117 -71 170 -79 l47 -7 0 -79 0 -79 80 0 80 0 0 79 0 79
47 7 c53 8 125 41 170 79 16 14 45 53 64 88 31 58 34 70 34 148 0 78 -3 90
-34 148 -51 95 -131 152 -234 167 l-47 7 0 159 c0 176 -1 172 64 145 40 -17
83 -71 92 -114 l7 -32 79 0 80 0 -7 48 c-8 59 -59 155 -98 188 -45 38 -117 71
-170 79 l-47 7 0 79 0 79 -80 0 -80 0 0 -79z m0 -401 c0 -177 1 -173 -63 -146
-125 52 -126 238 -2 292 66 29 65 31 65 -146z m249 -348 c49 -36 66 -70 66
-132 0 -44 -5 -66 -21 -86 -28 -39 -63 -63 -101 -70 l-33 -6 0 162 0 163 33
-7 c17 -3 43 -14 56 -24z"/>
<path d="M1857 3007 c-108 -144 -164 -304 -174 -494 l-6 -113 80 0 80 0 6 108
c9 159 60 302 150 415 l30 38 -34 36 c-19 19 -46 43 -60 54 l-26 18 -46 -62z"/>
<path d="M4015 786 c-101 -44 -125 -178 -46 -257 65 -65 157 -65 222 0 124
124 -15 327 -176 257z"/>
</g>
</svg>
