<?xml version="1.0" standalone="no"?>
<!DOCTYPE svg PUBLIC "-//W3C//DTD SVG 20010904//EN"
 "http://www.w3.org/TR/2001/REC-SVG-20010904/DTD/svg10.dtd">
<svg version="1.0" xmlns="http://www.w3.org/2000/svg"
 width="512.000000pt" height="512.000000pt" viewBox="0 0 512.000000 512.000000"
 preserveAspectRatio="xMidYMid meet">

<g transform="translate(0.000000,512.000000) scale(0.100000,-0.100000)"
fill="#3b92f8" stroke="none">
<path d="M4404 5113 c-28 -5 -33 -12 -220 -253 -186 -241 -190 -248 -174 -294
16 -49 47 -66 125 -66 l65 0 0 -595 0 -596 25 -24 c24 -25 26 -25 205 -25 179
0 181 0 205 25 l25 24 0 596 0 595 64 0 c55 0 69 4 95 26 25 20 31 34 31 64 0
41 1 39 -248 362 -82 106 -122 149 -144 157 -17 6 -31 10 -32 10 -1 -1 -11 -4
-22 -6z m131 -320 l107 -138 -47 -6 c-91 -10 -85 33 -85 -645 l0 -594 -80 0
-80 0 0 595 0 596 -25 24 c-18 19 -35 25 -65 25 -23 0 -40 4 -38 9 3 8 201
269 205 270 1 1 50 -61 108 -136z"/>
<path d="M3585 4651 c-29 -13 -55 -43 -234 -275 -181 -235 -188 -251 -132
-307 27 -26 36 -29 95 -29 l66 0 0 -504 c0 -325 4 -514 10 -532 20 -51 31 -53
226 -54 176 0 181 1 202 23 22 23 22 25 24 543 l3 519 73 5 c65 4 77 8 98 33
26 31 31 66 12 100 -15 30 -331 438 -354 459 -24 21 -63 30 -89 19z m163 -353
l83 -108 -40 0 c-28 0 -48 -7 -68 -24 l-28 -24 -3 -521 -3 -521 -79 0 -80 0 0
523 c0 516 0 524 -21 543 -11 10 -40 21 -64 24 l-44 5 107 138 106 138 26 -33
c14 -18 62 -81 108 -140z"/>
<path d="M2833 4017 c-11 -7 -101 -115 -198 -240 -198 -257 -206 -273 -157
-328 27 -31 35 -34 101 -37 l71 -4 0 -363 0 -364 26 -20 c25 -19 40 -21 200
-21 95 0 180 3 189 6 42 16 45 46 45 414 l0 350 55 0 c61 0 108 19 125 49 13
26 12 71 -3 97 -28 48 -350 455 -367 464 -25 13 -60 12 -87 -3z m157 -317 c55
-72 100 -132 100 -135 0 -3 -20 -5 -45 -5 -32 0 -51 -6 -65 -20 -19 -19 -20
-33 -20 -385 l0 -365 -80 0 -79 0 -3 365 c-3 415 1 395 -88 405 l-50 5 107
137 c58 76 109 135 114 132 5 -2 53 -63 109 -134z"/>
<path d="M1005 3870 c-235 -37 -478 -157 -643 -319 -168 -164 -285 -377 -328
-595 -17 -85 -17 -87 3 -114 14 -19 31 -28 55 -30 44 -4 73 28 83 91 13 78 57
202 100 284 238 451 773 656 1247 479 287 -107 520 -353 611 -641 55 -175 62
-384 18 -555 -77 -298 -302 -562 -579 -680 -149 -63 -211 -75 -402 -75 -153 0
-185 3 -254 23 -294 85 -519 268 -651 530 -40 80 -80 199 -91 268 -13 87 -78
121 -131 68 -23 -23 -25 -31 -19 -75 10 -74 53 -213 91 -297 82 -176 239 -362
394 -467 l73 -50 -203 -6 c-117 -3 -215 -10 -229 -17 -138 -62 -192 -223 -114
-338 l25 -36 -26 -51 c-34 -69 -34 -136 1 -205 l26 -52 -26 -52 c-36 -73 -35
-138 3 -212 19 -35 26 -58 19 -62 -21 -13 -48 -91 -48 -140 0 -34 8 -66 26
-102 l26 -52 -27 -55 c-66 -135 9 -293 155 -324 71 -15 4678 -16 4749 0 71 15
123 57 156 124 24 47 27 64 22 114 -5 65 -22 104 -63 145 -54 54 -93 66 -208
66 l-106 0 -2 799 c-3 770 -4 800 -22 820 -22 25 -73 28 -102 7 -18 -14 -19
-37 -24 -818 l-5 -803 -157 -3 -158 -3 0 1171 0 1171 158 -3 157 -3 5 -247 c4
-215 7 -250 22 -264 24 -24 75 -22 101 5 22 21 22 27 22 291 0 256 -1 270 -21
296 -49 67 -57 69 -270 72 -182 3 -197 2 -239 -18 -32 -16 -49 -32 -64 -64
-21 -42 -21 -51 -21 -1224 l0 -1182 -80 0 -80 0 0 1033 c0 988 -1 1034 -19
1067 -36 69 -60 75 -291 75 -225 0 -239 -3 -277 -62 -17 -25 -18 -95 -23
-1068 l-5 -1040 -80 0 -80 0 -5 885 c-4 681 -8 890 -17 907 -7 12 -28 32 -45
45 -32 22 -40 23 -238 23 -196 0 -207 -1 -241 -23 -73 -45 -69 10 -69 -966 l0
-876 -124 0 -124 0 5 60 c6 62 -13 136 -42 160 -11 9 -8 21 16 67 39 75 40
141 0 215 -27 53 -28 55 -10 77 53 65 49 200 -8 263 -14 16 -13 21 11 69 61
123 7 267 -119 320 -19 8 -104 15 -224 18 l-193 6 73 50 c41 27 112 88 159
135 455 453 454 1184 -1 1639 -146 145 -340 255 -539 306 -118 30 -335 42
-445 25z m2805 -2395 l0 -1016 -157 3 -158 3 -3 1000 c-1 550 0 1006 3 1013 3
9 45 12 160 12 l155 0 0 -1015z m-775 -155 l0 -855 -157 -3 -158 -3 0 861 0
861 158 -3 157 -3 0 -855z m-916 229 c54 -19 69 -83 29 -126 l-21 -23 -968 0
-968 0 -20 26 c-12 15 -21 36 -21 48 0 28 26 65 54 76 33 14 1876 12 1915 -1z
m35 -328 c33 -31 34 -71 2 -108 l-24 -28 -960 0 -960 0 -26 24 c-44 41 -31
108 25 130 15 6 377 9 971 8 l946 -2 26 -24z m0 -310 c35 -33 35 -79 0 -112
l-26 -24 -575 -5 c-554 -5 -575 -6 -589 -24 -16 -23 -18 -59 -4 -86 20 -38 56
-40 623 -40 l551 0 23 -22 c32 -30 31 -77 -3 -109 l-26 -24 -958 0 -958 0 -26
24 c-33 31 -34 76 -4 108 21 23 23 23 263 23 250 0 297 6 315 40 14 27 12 62
-6 85 -14 19 -30 20 -279 25 -262 5 -264 5 -289 29 -47 44 -25 118 39 134 11
3 444 4 962 3 l941 -1 26 -24z m2795 -627 c37 -47 22 -103 -33 -124 -19 -7
-769 -10 -2357 -10 -2490 0 -2375 -2 -2393 45 -12 32 -6 71 14 93 l21 22 2364
0 2364 0 20 -26z"/>
<path d="M1143 3320 c-32 -13 -43 -41 -43 -112 l0 -64 -45 -12 c-55 -15 -131
-81 -156 -137 -29 -63 -25 -151 9 -216 51 -99 133 -139 283 -139 65 0 73 -2
100 -29 40 -40 40 -89 0 -133 -27 -30 -34 -33 -102 -36 -92 -5 -121 6 -154 58
-30 47 -63 64 -100 50 -103 -39 -8 -221 130 -250 29 -6 30 -7 35 -77 4 -51 10
-77 24 -92 26 -29 71 -27 101 4 22 21 25 33 25 95 0 66 1 70 23 70 13 0 47 15
77 33 69 41 109 103 117 180 9 86 -11 142 -71 202 -60 59 -103 75 -205 75
-117 0 -161 29 -161 105 0 27 8 44 29 66 28 27 34 29 109 29 78 0 81 -1 104
-31 65 -87 99 -99 143 -54 33 32 31 60 -8 125 -27 46 -42 60 -94 85 l-62 30
-1 62 c0 76 -5 90 -41 108 -32 17 -35 17 -66 5z"/>
</g>
</svg>
