<svg xmlns="http://www.w3.org/2000/svg" width="512" height="512" viewBox="0 0 512 512" version="1.1"><path d="" stroke="none" fill="#080404" fill-rule="evenodd"/><path d="M 237 15.616 C 225.503 16.670, 209.408 19.363, 198.076 22.128 C 183.476 25.692, 164.609 32.157, 161.024 34.825 C 155.590 38.870, 156.118 45.525, 162.142 48.906 C 164.554 50.260, 165.908 49.970, 181.666 44.727 C 211.846 34.685, 233.220 31.455, 264 32.284 C 296.155 33.150, 321.491 39.142, 349.884 52.595 C 411.193 81.643, 457.129 137.066, 473.943 202.278 C 490.551 266.692, 477.044 332.706, 435.563 389.853 L 429.500 398.207 429.236 393.853 C 428.847 387.427, 428.170 385.170, 425.975 382.975 C 423.749 380.749, 418.390 380.380, 415.913 382.282 C 412.472 384.924, 412 387.723, 412 405.511 L 412 423.154 414.923 426.077 L 417.846 429 436.469 429 C 454.907 429, 455.115 428.976, 457.545 426.545 C 462.160 421.931, 460.013 413.953, 453.775 412.533 C 452.524 412.248, 448.933 411.899, 445.795 411.757 L 440.090 411.500 445.190 405 C 466.318 378.068, 483.736 341.060, 490.862 307.960 C 497.576 276.780, 497.809 238.391, 491.472 207.744 C 476.385 134.782, 427.723 72.283, 360.500 39.530 C 338.797 28.956, 313.785 21.253, 289 17.513 C 278.809 15.975, 246.104 14.782, 237 15.616 M 245 68.635 C 184.751 72.855, 131.249 102.099, 100.298 147.729 C 84.433 171.118, 74.981 195.874, 70.377 226.096 C 68.033 241.482, 67.999 269.611, 70.306 284.500 C 76.100 321.892, 91.003 354.685, 114.618 382.010 C 137.567 408.563, 169.588 427.864, 206.723 437.529 C 244.762 447.428, 279.612 446.623, 315 435.026 C 379.097 414.020, 427.662 359.231, 440.892 293 C 445.459 270.132, 445.601 252.394, 441.414 227.500 C 425.568 133.289, 356.610 71.905, 263 68.680 C 256.125 68.443, 248.025 68.423, 245 68.635 M 54.455 85.455 C 49.840 90.069, 51.987 98.047, 58.225 99.467 C 59.476 99.752, 63.067 100.101, 66.205 100.243 L 71.910 100.500 66.801 107 C 57.217 119.195, 45.827 137.480, 38.460 152.500 C 20.915 188.270, 13.080 223.821, 14.326 262 C 15.483 297.451, 22.861 326.653, 38.959 359.500 C 51.960 386.028, 68.273 408.423, 89.364 428.699 C 146.385 483.516, 222.836 507.227, 298.195 493.468 C 316.680 490.093, 345.624 481.158, 350.976 477.175 C 356.418 473.124, 355.881 466.475, 349.839 463.083 C 347.401 461.714, 346.111 461.992, 330.364 467.271 C 300.573 477.257, 278.855 480.542, 248 479.726 C 201.272 478.491, 161.129 464.280, 122 435.122 C 94.250 414.444, 69.863 384.839, 54.018 352.596 C 16.949 277.164, 25.111 193.475, 76.500 122.060 L 82.500 113.722 82.764 118.111 C 83.152 124.571, 83.826 126.826, 86.025 129.025 C 88.251 131.251, 93.610 131.620, 96.087 129.718 C 99.528 127.076, 100 124.277, 100 106.489 L 100 88.846 97.077 85.923 L 94.154 83 75.531 83 C 57.093 83, 56.885 83.024, 54.455 85.455 M 241.051 85.076 C 186.679 91.215, 143.758 115.678, 115.168 156.826 C 108.315 166.688, 97.975 187.838, 94.060 200 C 79.656 244.745, 82.954 294.630, 103.002 335.248 C 118.803 367.263, 144.338 392.368, 177.500 408.493 C 227.652 432.880, 287.685 432.868, 335.996 408.464 C 385.356 383.529, 415.892 339.059, 425.676 277.863 C 428.053 262.993, 427.831 240.689, 425.158 225.819 C 410.900 146.516, 342.542 87.144, 262.500 84.545 C 255.350 84.313, 245.698 84.552, 241.051 85.076 M 242.948 103.991 C 208.959 107.225, 178.873 119.628, 153.803 140.741 C 140.499 151.945, 128.822 166.883, 120.249 183.665 C 113.893 196.106, 110.857 204.617, 107.631 219.040 C 95.807 271.908, 110.085 326.183, 145.467 362.865 C 167.011 385.200, 194.057 399.549, 227.074 406.160 C 242.423 409.234, 271.941 409.480, 285 406.644 C 317.673 399.549, 344.319 384.992, 366.053 362.364 C 387.205 340.341, 399.911 316.120, 406.635 285 C 409.459 271.931, 409.233 244.257, 406.179 229.100 C 401.159 204.184, 390.490 179.138, 377.572 161.943 C 364.955 145.148, 345.350 128.712, 327 119.546 C 302.759 107.438, 270.149 101.402, 242.948 103.991 M 241.500 120.027 C 218.818 122.429, 198.034 129.916, 178.852 142.596 C 168.958 149.136, 149.667 168.517, 143.113 178.500 C 132.915 194.035, 126.108 210.783, 122.334 229.626 C 119.937 241.592, 119.972 268.640, 122.401 281.933 C 132.032 334.634, 168.403 373.616, 220.391 386.959 C 277.573 401.634, 336.844 380.922, 367.098 335.693 C 375.219 323.552, 379.385 315.045, 384.063 301.052 C 394.324 270.364, 394.807 241.145, 385.515 213.349 C 371.599 171.720, 340.280 140.401, 298.651 126.485 C 281.370 120.708, 258.972 118.177, 241.500 120.027 M 252.365 165.169 C 248.685 166.951, 247.512 170.593, 247.707 179.627 C 247.842 185.871, 247.561 188, 246.604 188 C 245.897 188, 242.602 189.358, 239.280 191.018 C 231.917 194.697, 224.784 202.092, 221.180 209.782 C 218.833 214.789, 218.500 216.743, 218.500 225.500 C 218.500 234.361, 218.821 236.195, 221.321 241.605 C 227.172 254.264, 239.197 262.469, 254.359 264.147 C 264.428 265.262, 270.144 268.446, 274.383 275.301 C 280.262 284.811, 277.525 297.583, 268.155 304.358 L 263.811 307.500 243.655 308.044 C 232.570 308.343, 222.696 308.960, 221.713 309.415 C 219.146 310.603, 216.772 315.687, 217.563 318.300 C 217.930 319.510, 219.157 321.512, 220.289 322.750 C 222.218 324.858, 223.154 325, 235.087 325 L 247.824 325 247.738 332.990 C 247.687 337.747, 248.171 341.952, 248.936 343.380 C 250.828 346.916, 254.529 348.310, 258.523 346.993 C 263.026 345.506, 264.556 341.456, 264.278 331.750 C 264.111 325.909, 264.380 324, 265.369 324 C 266.090 324, 269.398 322.642, 272.720 320.982 C 280.083 317.303, 287.216 309.908, 290.820 302.218 C 293.167 297.211, 293.500 295.257, 293.500 286.500 C 293.500 277.644, 293.180 275.814, 290.700 270.500 C 284.700 257.640, 273.226 249.659, 258.193 247.891 C 247.477 246.630, 241.872 243.582, 237.617 236.699 C 231.738 227.189, 234.475 214.417, 243.845 207.642 L 248.189 204.500 268.345 203.956 C 279.430 203.657, 289.304 203.040, 290.287 202.585 C 292.854 201.397, 295.228 196.313, 294.437 193.700 C 294.070 192.490, 292.843 190.488, 291.711 189.250 C 289.781 187.142, 288.847 187, 276.894 187 L 264.137 187 264.198 178.694 C 264.264 169.741, 263.226 166.880, 259.257 165.071 C 256.438 163.787, 255.183 163.805, 252.365 165.169" stroke="none" fill="#3b92f8" fill-rule="evenodd"/></svg>